<?xml version="1.0" encoding="UTF-8"?><svg id="Layer_2" xmlns="http://www.w3.org/2000/svg" viewBox="0 0 1341.31 306.38"><defs><style>.cls-1{fill:#075fa8;}</style></defs><g id="Design"><path class="cls-1" d="m107.02,235.13c-22,0-42.23-7.54-58.26-20.17,18.65-42.08,56.65-98.55,108.44-153.69,26.45,16.68,44.02,46.14,44.02,79.7,0,14.32-3.22,27.92-8.96,40.09-16.43-7.61-31.75-17.13-44.76-29.14l28.38,53.29c-17.19,18.43-41.68,29.93-68.87,29.93M12.86,140.97c0-52.04,42.15-94.18,94.17-94.18,13.95,0,27.16,3.02,39.1,8.45-51.05,45.11-90.57,97.54-113.96,142.86-12.11-15.86-19.3-35.63-19.3-57.12m191.24,45.14c6.41-13.72,9.97-29.02,9.97-45.14,0-37.21-18.99-69.99-47.81-89.17,17.17-17.67,35.75-35.12,55.53-51.8-23.19,13.64-44.97,29.25-65.09,46.11-14.85-7.78-31.75-12.21-49.68-12.21C47.92,33.9,0,81.86,0,140.97c0,26.68,9.77,51.12,25.93,69.84-20.5,44.34-24.09,79.96-6.02,92.01,19.35,12.89,61.41-10.49,86.66-48.57,0,0-39.04,35.22-60.49,27.15-13.2-5-13.25-25.2-2.36-54.14,17.74,13.04,39.61,20.74,63.3,20.74,29.33,0,55.88-11.78,75.23-30.87l3.79,7.14c46.65-3.78,185.94-7.47,185.94-7.47,0-6.69-92.23-.62-167.89-30.69"/><polygon class="cls-1" points="842.71 131.13 860.15 107.97 799.41 107.95 814.38 88.1 875.12 88.1 892.6 64.95 771.31 64.95 687.87 175.68 809.19 175.68 826.61 152.49 765.87 152.49 781.93 131.13 842.71 131.13"/><polygon class="cls-1" points="926.95 64.95 843.55 175.67 904.06 175.67 987.48 64.95 926.95 64.95"/><polygon class="cls-1" points="1128.59 64.95 1086.31 121.08 1073.31 64.95 1026.02 64.95 942.6 175.67 982.63 175.67 1024.55 120.04 1037.42 175.67 1085.22 175.67 1168.65 64.95 1128.59 64.95"/><path class="cls-1" d="m1326.49,64.95l-97.29-.02c-16.65,0-31.41,7.97-40.74,20.35l-50.22,66.64c-1.88,2.47-2.98,5.56-2.98,8.92,0,8.18,6.63,14.84,14.82,14.84h97.27c16.67,0,31.47-7.98,40.78-20.34l12.06-16h14.06l17.57-23.34h-74.51l-23.53,31.22c-2.41,3.21-6.25,5.28-10.57,5.28h-17.13c-2.17,0-3.87-1.74-3.87-3.87,0-.87.29-1.68.78-2.3l39.9-52.96c2.41-3.21,6.24-5.27,10.57-5.27h17.14c2.15,0,3.86,1.74,3.86,3.85,0,.85-.3,1.67-.79,2.33l-6.46,8.6h60.45l10.71-14.21c1.85-2.46,2.97-5.53,2.97-8.9,0-8.19-6.66-14.83-14.83-14.83"/><path class="cls-1" d="m654.04,94.28l-39.91,52.94c-2.41,3.21-6.23,5.28-10.57,5.28h-17.14c-2.11,0-3.83-1.74-3.83-3.85,0-.89.29-1.7.75-2.31l39.9-52.95c2.44-3.19,6.27-5.28,10.58-5.28h17.15c2.13,0,3.84,1.73,3.84,3.84,0,.85-.29,1.67-.77,2.33m67.64-14.5c0-8.19-6.63-14.83-14.83-14.83h-97.22c-16.67,0-31.45,7.95-40.78,20.33l-50.23,66.64c-1.87,2.49-2.97,5.56-2.97,8.92,0,8.19,6.63,14.84,14.81,14.84h97.24c16.68,0,31.48-7.98,40.8-20.34l50.21-66.65c1.86-2.47,2.97-5.54,2.97-8.91"/><path class="cls-1" d="m469.2,94.28l-6.37,8.45c-2.43,3.17-6.24,5.24-10.59,5.24l-24.85-.02,14.99-19.85h23.74c2.11,0,3.85,1.74,3.85,3.85,0,.85-.28,1.67-.76,2.33m-32.45,43.02l-7.49,9.93c-2.41,3.2-6.22,5.27-10.56,5.27h-24.84l16.08-21.36h23.75c2.12,0,3.85,1.71,3.85,3.84,0,.88-.29,1.69-.79,2.32m56.18-14.29c11.93-2.69,22.3-9.6,29.41-19.04l11.51-15.28c1.86-2.47,2.97-5.54,2.97-8.91,0-8.19-6.62-14.83-14.81-14.83h-122.71l-83.42,110.72h126.96c16.68,0,31.48-7.98,40.79-20.34l11.77-15.63c1.51-1.96,2.36-4.46,2.36-7.12,0-3.94-1.91-7.4-4.83-9.58"/></g></svg>