<?xml version="1.0" encoding="UTF-8"?><svg id="Layer_2" xmlns="http://www.w3.org/2000/svg" viewBox="0 0 554.74 616.5"><defs><style>.cls-1{fill:#00519e;}.cls-2{fill:#357828;}</style></defs><g id="Design"><path class="cls-2" d="m258.92,616.5c-6.95-7.13-13.81-14.35-20.87-21.38-47.89-47.7-95.82-95.35-143.73-143.02-24.24-24.12-48.86-47.87-72.54-72.52C8.44,365.71-.06,348.8,0,328.92c.04-14.4,5.65-27.27,13.92-38.75,4.97-6.9,10.9-13.2,16.93-19.24,28.3-28.37,56.78-56.56,85.19-84.82,42.33-42.12,84.65-84.24,126.96-126.37,13.77-13.71,27.38-27.6,41.29-41.17,6.85-6.69,14.36-12.68,23.27-16.53,11.1-4.8,21-1.03,25.17,10.33,2.06,5.6,3.37,11.79,3.45,17.74.37,27.31.22,54.64.1,81.96,0,1.41-1.16,3.11-2.25,4.18-21.53,21.19-43.13,42.3-64.71,63.43-33.05,32.35-66.1,64.71-99.14,97.07-.6.59-1.09,1.29-2.12,2.53,1.85,0,2.99,0,4.13,0,12.96.02,25.93-.15,38.88.11,8.71.18,17.31,1.6,24.96,6.14,11.3,6.71,17.75,17.22,20.64,29.58,1.97,8.45,2.96,17.32,2.98,26.01.24,90.73.19,181.46.23,272.19,0,.87,0,1.74,0,2.61l-.96.58Z"/><path class="cls-1" d="m336.79,327.41c0-59.62-.09-119.24.13-178.85.03-6.98,1.02-14.16,2.91-20.87,3.79-13.47,13.85-16.1,24-6.38,13.11,12.54,25.82,25.49,38.68,38.28,23.67,23.55,47.32,47.12,70.99,70.67,22.32,22.21,44.72,44.36,66.96,66.66,8.58,8.6,13.99,18.94,14.28,31.29.3,12.83-4.87,23.75-13.77,32.68-28.64,28.73-57.47,57.27-86.22,85.89-29.46,29.32-58.87,58.69-88.42,87.92-2.86,2.83-6.39,5.09-9.9,7.1-4.28,2.45-8.27,1.51-11.53-2.18-4.71-5.34-6.09-12.04-6.87-18.76-.77-6.61-1.09-13.3-1.1-19.96-.08-57.82-.05-115.65-.05-173.47h-.09Z"/></g></svg>