<?xml version="1.0" encoding="UTF-8"?><svg xmlns="http://www.w3.org/2000/svg" xmlns:xlink="http://www.w3.org/1999/xlink" viewBox="0 0 662 617.46"><defs><style>.cls-1{fill:#fff;}.cls-2{fill:url(#linear-gradient);}.cls-2,.cls-3{mix-blend-mode:multiply;}.cls-3{fill:#ce202f;}.cls-4{isolation:isolate;}.cls-5{fill:#eae5e0;filter:url(#drop-shadow-1);}.cls-6{fill:#e9e4df;}</style><linearGradient id="linear-gradient" x1="186.23" y1="415.37" x2="1173.11" y2="-235.96" gradientUnits="userSpaceOnUse"><stop offset="0" stop-color="#fff"/><stop offset="1" stop-color="#000"/></linearGradient><filter id="drop-shadow-1" filterUnits="userSpaceOnUse"><feOffset dx="10.71" dy="10.71"/><feGaussianBlur result="blur" stdDeviation="7.65"/><feFlood flood-color="#000" flood-opacity=".5"/><feComposite in2="blur" operator="in"/><feComposite in="SourceGraphic"/></filter></defs><g class="cls-4"><g id="Layer_2"><g id="Design"><path d="m137.94,139.33V48.09C254.45,48.09,339.88,0,339.88,0c0,0,85.45,48.09,201.94,48.09v91.23H137.94Z"/><path class="cls-2" d="m339.88,617.46c-119.3-55.89-201.94-176.99-201.94-317.42v-160.71h403.89v160.71c0,140.43-82.64,261.52-201.93,317.42h-.02Z"/><path class="cls-3" d="m339.88,617.46c-119.3-55.89-201.94-176.99-201.94-317.42v-160.71h403.89v160.71c0,140.43-82.64,261.52-201.93,317.42h-.02Z"/><path class="cls-1" d="m468.48,110.91c3.43.74,8.91,1.7,14.76,1.7,8.41,0,16.26-1.47,18.63-11.16,3.55-15.63-16.13-11.55-14.39-19.03.62-2.66,3.3-3.68,7.35-3.68,3.61,0,6.67.74,9.22,1.47l3.55-7.81c-2.87-.85-5.79-1.7-12.83-1.7-6.04,0-15.64,1.3-18,10.82-3.43,15.29,16.26,11.1,14.45,19.08-.62,2.83-3.24,3.91-7.41,3.91-3.74,0-8.66-.85-12.15-1.64l-3.18,8.04Zm-15.64-26.67l1.12,12.85h-8.28l7.16-12.85Zm13.27,27.8l-6.23-40.72h-8.91l-24.92,40.72h11.28l3.86-6.96h13.52l.62,6.96h10.78Zm-53.94-27.8l1.12,12.85h-8.28l7.16-12.85Zm13.27,27.8l-6.23-40.72h-8.91l-24.92,40.72h11.28l3.86-6.96h13.52l.62,6.96h10.78Zm-44.79,0l9.47-40.72h-10.4l-3.74,16.03h-14.02l3.74-16.03h-10.34l-9.47,40.72h10.34l3.86-16.65h14.02l-3.86,16.65h10.4Zm-57,0l1.81-7.98h-17.82l2.12-8.95h14.08l1.87-7.98h-14.08l1.81-7.82h17.82l1.87-7.98h-28.16l-9.47,40.72h28.16Zm-63.91-40.72l-9.47,40.72h10.22l5.73-24.58,10.28,24.58h10.28l9.47-40.72h-10.28l-5.86,25.09-10.15-25.09h-10.22Zm-16.51,40.72l1.81-7.98h-17.82l2.12-8.95h14.08l1.87-7.98h-14.08l1.81-7.82h17.82l1.87-7.98h-28.16l-9.47,40.72h28.16Zm-44.17-7.76c-1.49.23-2.8.28-4.05.28h-1.06c-7.35,0-7.6-2.38-6.29-7.76l2.37-10.31c1.31-5.38,2.74-7.76,11.59-7.76h1.06c3.99,0,7.6.62,10.34,1.19l3.86-7.87c-4.8-.85-8.16-1.36-14.51-1.36h-1.06c-12.33,0-19.25,3.91-21.99,15.8l-2.37,10.31c-2.93,11.95,2.49,15.8,15.7,15.8h1c5.11,0,9.72-.45,14.14-1.53l4.61-19.59h-10.34l-2.99,12.8Z"/><path class="cls-5" d="m471.48,161.26l-188.97,327.31h-77.63l44.55-77.16-236.2-.23,38.86-67.2,236.14.23,105.62-182.94h77.63Zm79.11,0l-105.58,182.88-57.01-.16-38.86,67.2,57.08.16-44.59,77.23h77.63l188.97-327.31h-77.63Z"/><path class="cls-1" d="m273.41,231.43h-17.3v11.36h-15.69v-20h-22.97v10.03h-15.31v9.97h-30.38v48.87l4.94,7.36v11.9h29.38v5.59h4.45v-5.59h30.72v5.59h4.44v-5.59h33.97l-.08-13.7,2.55-7.37v-47.06h-8.74v-11.36Zm-4.44,4.45v6.92h-8.41v-6.92h8.41Zm-16.45,58.04v-46.68h25.19l.08,41.87-1.72,4.82h-23.55Zm-45.93-16.07v-22.47h7.41v22.47h-7.41Zm18.64-16.83v4.63h4.45v-4.63h2.45v-5.64h3.85v22.47h-17.53v-22.47h4.09v5.64h2.7Zm22.84,21.27v11.62h-41.49v-11.62h41.49Zm0-26.91v22.47h-7.66v-22.47h7.66Zm-41.49-12.59v-5.53h10.86v5.53h-10.86Zm15.31-15.56h14.08v15.56h-14.08v-15.56Zm26.18,20v3.71h-41.49v-3.71h41.49Zm27.16,51.13v8.12h-94.08v-8.12h94.08Zm-99.02-21v-13.83h19.65v-4.44h-19.65v-11.85h25.93v46.68h-23.51l-2.42-3.61v-8.51h19.65v-4.44h-19.65Z"/><path class="cls-1" d="m256.11,277.65h16.41v-4.47h-11.97v-2.41h12.86v-19.82h-17.3v26.71Zm4.44-11.61v-10.65h8.41v10.65h-8.41Z"/><path class="cls-1" d="m334.92,187.92v-5.21h-9.08c-2.42-4.22-6.92-7.09-12.12-7.09-2.69,0-5.18.8-7.32,2.12-5.01-1.72-8-2.67-13.79-2.67l-49.87.16v-12.91c0-2.26-1.83-4.09-4.09-4.09l-.27.02c-3.27.47-32.02,4.68-36.09,6.13l-14.91,5.31-1.69-3.45c-1.22-2.5-3.82-4.12-6.61-4.12h-28.89l7.32,19.8h8.32c-1.47,2.22-2.34,4.87-2.34,7.73,0,7.74,6.3,14.03,14.03,14.03,4.42,0,8.32-2.09,10.9-5.3h106.96l.07-1.83c.02-.44.21-2.61,2.54-2.61h2.44c1.83,5.63,7.06,9.74,13.29,9.74,5.21,0,9.71-2.89,12.13-7.11.66,1.08,1.84,1.82,3.2,1.82h21.93v-10.47h-16.06Zm-45.95-8.5v4.8h-36.07v-4.8h36.07Zm-111.45,20.46c-5.64,0-10.23-4.59-10.23-10.23s4.59-10.23,10.23-10.23,10.23,4.59,10.23,10.23-4.59,10.23-10.23,10.23Zm120.46-9.74c-3.48,0-5.32,2.25-6.01,4.44h-101.36c.58-1.54.94-3.19.94-4.93,0-7.74-6.3-14.03-14.03-14.03-2.96,0-5.7.93-7.96,2.5h-9.4l-4.51-12.2h23.43c1.35,0,2.6.78,3.19,1.99l3.18,6.5,18.11-6.45c2.79-1,22.47-4.07,35.15-5.92.12.03.21.15.21.28v12.94l-22.28.33c-1.91.02-3.79.34-5.59.94l-13.79,4.57,1.2,3.61,13.79-4.57c1.43-.47,2.93-.72,4.45-.74l24.16-.35h0s8.24-.03,8.24-.03v9.01h43.67v-9.15c4.25.02,6.79.61,10.29,1.76-2.08,2.45-3.38,5.57-3.38,9.02,0,.17.04.32.05.49h-1.74Zm15.73,9.74c-5.64,0-10.23-4.59-10.23-10.23s4.59-10.23,10.23-10.23,10.23,4.59,10.23,10.23c0,.17-.04.32-.05.49h-.1v1.03c-.74,4.92-4.96,8.71-10.08,8.71Zm33.46-5.29l-18.08.04c0-1.33-.59-2.51-1.51-3.33.06-.55.17-1.08.17-1.64,0-1.08-.15-2.13-.38-3.14h3.75v5.21h16.06v2.87Z"/><path class="cls-1" d="m262.54,172.69c0-5.12-4.17-9.29-9.29-9.29s-9.29,4.17-9.29,9.29v1.9h18.59v-1.9Zm-14.45-1.9c.77-2.09,2.79-3.59,5.15-3.59s4.38,1.5,5.15,3.59h-10.3Z"/><path class="cls-1" d="m177.52,181.99c-4.22,0-7.66,3.44-7.66,7.66s3.44,7.66,7.66,7.66,7.66-3.44,7.66-7.66-3.44-7.66-7.66-7.66Zm0,11.52c-2.13,0-3.86-1.73-3.86-3.86s1.73-3.86,3.86-3.86,3.86,1.73,3.86,3.86-1.73,3.86-3.86,3.86Z"/><path class="cls-1" d="m313.71,181.99c-4.22,0-7.66,3.44-7.66,7.66s3.44,7.66,7.66,7.66,7.66-3.44,7.66-7.66-3.44-7.66-7.66-7.66Zm0,11.52c-2.13,0-3.86-1.73-3.86-3.86s1.73-3.86,3.86-3.86,3.86,1.73,3.86,3.86-1.73,3.86-3.86,3.86Z"/><path d="m546.34,492.92s.08.01.11.03c.03.02.03.05.06.07.32.25.58.55.77.9.01.02.03.03.04.06.19.38.29.79.29,1.22,0,.02.02.04.02.06v57.15c18.43-2.74,34.89-6.32,41.86-7.91l-18.54-35.55c-.39-.74-.43-1.62-.11-2.39l17.66-42.88c-22.38,4.24-65.51,10.02-85.97,12.69l43.27,16.22c.22.08.38.23.56.35Z"/><path d="m185.38,501.24v-21.67s-40.81,15.52-40.81,15.52c7.64,1.62,20.74,3.93,40.81,6.14Z"/><path d="m109.39,509l-18.54,35.55c6.95,1.6,23.39,5.17,41.8,7.91v-57.2c0-.78.38-1.48.94-2.02h0c.09-.09.13-.2.23-.28.18-.13.4-.16.6-.24.04-.02.08-.06.12-.08l43.27-16.23c-20.46-2.66-63.59-8.45-85.97-12.69l17.65,42.88c.33.77.29,1.65-.11,2.39Z"/><path d="m535.24,494.68l-40.97-15.55v21.81c20.23-2.23,33.37-4.64,40.97-6.25Z"/><path d="m138.32,555.42c.03.24.08.48.04.73,0,.04-.03.08-.04.12v24.36c12.96,2.5,81.94,14.67,201.81,14.67s188.85-12.16,201.81-14.67v-81.64c-13.69,3.47-67.05,14.28-201.81,14.28-59.85,0-110.63-2.13-150.91-6.35-28.94-3.03-44.41-6.31-50.9-7.93,0,0,0,56.43,0,56.43Z"/><path class="cls-6" d="m208.33,536.58l-.55,5.25-17.48-1.82-.74,7.13,14.86,1.55-.5,4.78-14.86-1.55-1.17,11.25-6.94-.72,2.96-28.42,24.42,2.55Z"/><path class="cls-6" d="m240.4,550.91l-.37,4.87c-.54,7.19-6.27,11.82-15.58,11.12-9.28-.7-14.24-6.13-13.7-13.33l.36-4.83c.54-7.19,6.27-11.82,15.54-11.12,9.32.7,14.28,6.14,13.74,13.29Zm-6.92-.48c.36-4.72-2.02-7.35-7.2-7.74-5.15-.39-7.89,1.86-8.24,6.53l-.37,4.87c-.37,4.87,2,7.54,7.15,7.93,5.19.39,7.93-1.89,8.3-6.77l.36-4.83Z"/><path class="cls-6" d="m275.61,540.86l-.82,16.77c-.35,7.2-5.91,11.9-15.24,11.44-9.25-.45-14.45-5.52-14.1-12.53l.84-17.12,6.97.34-.84,17.16c-.22,4.49,3.11,6.54,7.4,6.76,4.96.24,7.86-1.78,8.07-6l.84-17.16,6.89.34Z"/><path class="cls-6" d="m287.49,541.22l15.84,18.97h.08s.47-18.56.47-18.56l6.19.16-.73,28.57-5.08-.13-16.11-19.3h-.08s-.48,18.87-.48,18.87l-6.23-.16.73-28.57,5.4.14Z"/><path class="cls-6" d="m332.11,541.97c9.3.04,14.68,5.11,14.65,12.28l-.02,4.1c-.03,7.21-5.45,12.24-14.76,12.2l-14.7-.06.12-28.58,14.7.06Zm-.02,5.2l-7.73-.03-.08,18.37,7.73.03c5.2.02,7.78-2.33,7.8-7.42l.02-3.51c.02-5.01-2.53-7.42-7.73-7.44Z"/><path class="cls-6" d="m355.4,570.5l-7.13.11,13.3-28.79,7.33-.12,14.25,28.35-7.13.11-2.73-5.91-15.37.24-2.51,5.99Zm4.44-10.67l11.27-.18-5.84-12.68h-.08s-5.35,12.86-5.35,12.86Z"/><path class="cls-6" d="m407.84,540.58l.18,5.36-10.16.35.79,23.2-6.93.24-.79-23.2-10.16.35-.18-5.36,27.26-.93Z"/><path class="cls-6" d="m419.74,539.96l1.41,28.54-6.93.34-1.41-28.54,6.93-.34Z"/><path class="cls-6" d="m456.49,549.48l.33,4.88c.49,7.2-4.52,12.59-13.84,13.22-9.28.63-14.97-4.04-15.46-11.24l-.33-4.84c-.49-7.2,4.52-12.59,13.8-13.22,9.32-.63,15.01,4.04,15.49,11.19Zm-6.92.51c-.32-4.72-3.04-6.98-8.23-6.63-5.15.35-7.54,2.96-7.22,7.64l.33,4.88c.33,4.88,3.05,7.18,8.21,6.83,5.19-.35,7.58-3,7.25-7.88l-.33-4.84Z"/><path class="cls-6" d="m466.61,536.7l18.05,16.89h.08s-1.81-18.48-1.81-18.48l6.16-.6,2.78,28.44-5.06.5-18.35-17.17h-.08s1.84,18.8,1.84,18.8l-6.2.61-2.78-28.44,5.37-.53Z"/></g></g></g></svg>