<?xml version="1.0" encoding="UTF-8"?><svg id="Layer_2" xmlns="http://www.w3.org/2000/svg" viewBox="0 0 445.81 565.03"><defs><style>.cls-1{fill:#ad1e40;}.cls-2{fill:#fff;}</style></defs><g id="Design"><g id="ISF"><path class="cls-1" d="m211.69,139.44c-5.02,7.35-15.92,16.81-28.98-.2-22.79-29.69-56.02-28.01-56.02-28.01,0,0-75.47-9.68-103.49,41.84C-4.81,204.6-3.26,245.84,6.08,294.08c9.34,48.24,66.92,217.86,66.92,217.86,0,0,37.79,101.9,130.72,23.34,9.67-6,35.01-6.22,55.24,10.89,20.23,17.12,80.92,34.24,105.04-21.01,24.12-55.24,80.14-236.54,81.7-277.78,1.56-41.24-13.23-123.72-83.26-133.05,0,0-47.47-4.68-78.27,10.23-30.79,14.91-44.82,24.31-57.58,23.99-12.76-.32,16.41-30.79,16.41-30.79,0,0,37.6-25.61,71.31-24.63s72.6-23.66,78.44-60.29c0,0,3.66-25.51,3.22-32.85,0,0-65.57,3.45-111.74,24.16,0,0-38.18,20.71-49.61,58.46,0,0-10.35,35.38-10.35,37.53s-2.59-38.61-12.08-53.93c-9.49-15.32-14.88-20.49-14.88-20.49,0,0-2.37-2.59-6.04,1.29-3.67,3.88-8.2,11.22-5.61,14.02,2.59,2.8,29.36,22.15,26.53,47.24,0,0,2.25,25.94-.52,31.15"/><polygon class="cls-2" points="64.21 397.51 64.21 364.05 85.98 364.05 85.98 365.82 66.5 365.82 66.5 379.42 83.36 379.42 83.36 381.19 66.5 381.19 66.5 397.51 64.21 397.51"/><path class="cls-2" d="m109.12,398.12c-3.14,0-5.97-.76-8.42-2.27-2.45-1.5-4.33-3.58-5.59-6.18-1.28-2.64-1.93-5.48-1.93-8.43,0-5.61,1.5-10.04,4.46-13.16,2.99-3.15,6.75-4.68,11.51-4.68,3.08,0,5.88.74,8.34,2.2,2.44,1.45,4.33,3.51,5.61,6.11,1.31,2.65,1.97,5.71,1.97,9.1s-.7,6.53-2.07,9.22c-1.35,2.64-3.28,4.66-5.74,6.01-2.5,1.37-5.23,2.07-8.13,2.07Zm.05-33.09c-3.68,0-6.89,1.28-9.54,3.81-2.67,2.54-4.02,6.74-4.02,12.47,0,4.63,1.29,8.36,3.82,11.07,2.56,2.74,5.81,4.13,9.66,4.13s7.2-1.4,9.74-4.17c2.52-2.74,3.79-6.62,3.79-11.55,0-3.09-.54-5.84-1.59-8.17-1.09-2.39-2.7-4.28-4.8-5.61-2.09-1.32-4.47-1.99-7.07-1.99Z"/><path class="cls-2" d="m146.72,398.12c-3.14,0-5.72-.54-7.67-1.59-1.9-1.03-3.22-2.48-4.03-4.43-.85-2.04-1.28-4.91-1.28-8.53v-19.52h2.29v19.5c0,3.31.31,5.71.96,7.35.68,1.74,1.87,3.1,3.53,4.04,1.59.9,3.54,1.36,5.79,1.36,3.83,0,6.65-.93,8.38-2.77,1.73-1.84,2.56-5.11,2.56-9.99v-19.5h2.29v19.52c0,3.44-.39,6.19-1.14,8.16-.73,1.89-2.01,3.38-3.93,4.58-1.92,1.2-4.53,1.81-7.74,1.81Z"/><polygon class="cls-2" points="192.72 397.51 171.95 366.44 171.95 397.51 169.86 397.51 169.86 364.05 172.85 364.05 193.61 395.09 193.61 364.05 195.7 364.05 195.7 397.51 192.72 397.51"/><path class="cls-2" d="m206.16,397.51v-33.46h11.14c2.69,0,4.74.16,6.12.48,1.86.43,3.45,1.2,4.75,2.31,1.73,1.46,3.04,3.36,3.9,5.64.88,2.34,1.33,5.07,1.33,8.11,0,2.6-.3,4.92-.9,6.9-.59,1.97-1.36,3.6-2.27,4.87-.91,1.25-1.9,2.25-2.96,2.96-1.06.71-2.37,1.26-3.9,1.63-1.57.38-3.41.58-5.48.58h-11.73Zm2.29-1.77h8.9c2.52,0,4.47-.24,5.96-.72,1.53-.5,2.78-1.23,3.71-2.16,1.26-1.26,2.25-2.95,2.93-5.03.67-2.02,1.01-4.48,1.01-7.31,0-3.97-.68-7.1-2.03-9.31-1.37-2.25-3.09-3.78-5.1-4.56-1.43-.55-3.59-.82-6.6-.82h-8.78v29.92Z"/><path class="cls-2" d="m266.28,397.51l-4.19-10.88h-16.74l-3.95,10.88h-2.39l12.85-33.46h3.45l13.69,33.46h-2.73Zm-14.02-31.16c-.44,2.23-1.08,4.48-1.88,6.68l-4.57,12.2h15.75l-4.38-11.62c-1.13-2.98-1.97-5.45-2.52-7.35l-2.4.1Z"/><polygon class="cls-2" points="281.3 397.51 281.3 365.82 269.47 365.82 269.47 364.05 295.48 364.05 295.48 365.82 283.59 365.82 283.59 397.51 281.3 397.51"/><rect class="cls-2" x="303.63" y="364.05" width="2.29" height="33.46"/><path class="cls-2" d="m331.27,398.12c-3.14,0-5.97-.76-8.42-2.27-2.45-1.5-4.33-3.58-5.59-6.18-1.28-2.64-1.93-5.48-1.93-8.43,0-5.61,1.5-10.04,4.46-13.16,2.99-3.15,6.75-4.68,11.51-4.68,3.08,0,5.88.74,8.34,2.2,2.44,1.45,4.33,3.51,5.61,6.11,1.31,2.65,1.97,5.71,1.97,9.1s-.7,6.53-2.07,9.22c-1.35,2.64-3.28,4.66-5.74,6.01-2.5,1.37-5.23,2.07-8.13,2.07Zm.05-33.09c-3.68,0-6.89,1.28-9.54,3.81-2.67,2.54-4.02,6.74-4.02,12.47,0,4.63,1.29,8.36,3.82,11.07,2.56,2.74,5.81,4.13,9.66,4.13s7.2-1.4,9.74-4.17c2.52-2.74,3.79-6.62,3.79-11.55,0-3.09-.54-5.84-1.59-8.17-1.09-2.39-2.7-4.28-4.8-5.61-2.09-1.32-4.47-1.99-7.07-1.99Z"/><polygon class="cls-2" points="378.61 397.51 357.85 366.44 357.85 397.51 355.76 397.51 355.76 364.05 358.74 364.05 379.51 395.09 379.51 364.05 381.6 364.05 381.6 397.51 378.61 397.51"/><path class="cls-2" d="m80.13,345.14c-4.08,0-7.54-.59-10.26-1.77-2.65-1.14-4.75-2.88-6.26-5.17-1.31-1.99-2.08-4.23-2.32-6.69l3.54-.31c.37,2.03,1.03,3.77,1.98,5.17,1.15,1.7,2.93,3.09,5.28,4.12,2.29,1,4.9,1.5,7.74,1.5,2.53,0,4.8-.39,6.76-1.15,2.04-.79,3.6-1.92,4.63-3.34,1.04-1.44,1.57-3.05,1.57-4.77s-.52-3.32-1.55-4.64c-1.01-1.3-2.58-2.34-4.79-3.18-1.32-.52-4.13-1.29-8.56-2.35-4.22-1.01-7.19-1.97-8.83-2.84-2.06-1.08-3.59-2.41-4.58-3.97-.99-1.56-1.47-3.27-1.47-5.22,0-2.16.6-4.12,1.83-6.01,1.21-1.85,3.01-3.28,5.37-4.25,2.44-1.01,5.19-1.52,8.19-1.52,3.32,0,6.27.54,8.78,1.59,2.43,1.03,4.32,2.55,5.62,4.52,1.1,1.67,1.78,3.56,2.03,5.63l-3.61.27c-.51-2.73-1.69-4.88-3.54-6.4-2.08-1.7-5.11-2.57-9.01-2.57-4.11,0-7.06.77-9.04,2.35-2.03,1.62-3.06,3.63-3.06,5.97,0,2.06.76,3.77,2.25,5.11.87.79,2.86,2.04,9.97,3.65,4.97,1.13,8.41,2.11,10.22,2.93,2.52,1.16,4.4,2.64,5.58,4.38,1.16,1.73,1.75,3.76,1.75,6.03s-.66,4.42-1.96,6.43c-1.3,2.01-3.21,3.61-5.68,4.74-2.52,1.15-5.41,1.74-8.59,1.74Z"/><path class="cls-2" d="m128.11,345.14c-4.82,0-8.78-.98-11.75-2.91-2.96-1.93-5.26-4.77-6.82-8.45-1.59-3.76-2.4-7.86-2.4-12.18,0-4.7.9-8.84,2.68-12.31,1.76-3.42,4.28-6.05,7.52-7.83,3.27-1.79,6.92-2.7,10.86-2.7,4.43,0,8.19,1.13,11.18,3.36,2.68,2,4.65,4.77,5.89,8.26l-3.77.89c-1.16-3.13-2.78-5.49-4.83-7.03-2.29-1.73-5.19-2.6-8.6-2.6-3.88,0-7.18.96-9.82,2.84-2.64,1.89-4.52,4.45-5.59,7.62-1.03,3.04-1.55,6.23-1.55,9.46,0,4.15.62,7.84,1.84,10.97,1.27,3.24,3.28,5.71,5.97,7.33,2.65,1.59,5.57,2.4,8.66,2.4,3.78,0,7.04-1.11,9.68-3.31,2.37-1.97,4.06-4.8,5.04-8.44l3.82.96c-1.29,4.26-3.4,7.59-6.31,9.89-3.16,2.51-7.11,3.78-11.72,3.78Z"/><polygon class="cls-2" points="189.17 344.33 189.17 322.07 162.16 322.07 162.16 344.33 158.37 344.33 158.37 299.57 162.16 299.57 162.16 318.97 189.17 318.97 189.17 299.57 192.96 299.57 192.96 344.33 189.17 344.33"/><path class="cls-2" d="m226.86,345.14c-4.19,0-7.99-1.02-11.27-3.04-3.28-2.01-5.8-4.8-7.49-8.28-1.71-3.53-2.58-7.31-2.58-11.25,0-7.48,2.01-13.38,5.98-17.56,3.95-4.16,9.13-6.27,15.41-6.27,4.11,0,7.87.99,11.16,2.95,3.28,1.95,5.81,4.71,7.53,8.2,1.74,3.54,2.63,7.62,2.63,12.13s-.93,8.71-2.76,12.29c-1.81,3.54-4.4,6.25-7.71,8.07-3.34,1.83-7,2.76-10.88,2.76Zm.06-43.49c-4.73,0-8.86,1.65-12.27,4.9-3.43,3.27-5.17,8.69-5.17,16.12,0,5.99,1.66,10.8,4.92,14.29,3.29,3.52,7.47,5.3,12.42,5.3s9.25-1.8,12.52-5.36c3.24-3.53,4.88-8.54,4.88-14.91,0-4-.69-7.56-2.06-10.58-1.39-3.08-3.47-5.5-6.17-7.2-2.69-1.7-5.75-2.56-9.08-2.56Z"/><path class="cls-2" d="m279.77,345.14c-4.19,0-7.99-1.02-11.27-3.04-3.28-2.01-5.8-4.8-7.49-8.28-1.71-3.53-2.58-7.31-2.58-11.25,0-7.48,2.01-13.38,5.98-17.56,3.95-4.16,9.13-6.27,15.41-6.27,4.11,0,7.87.99,11.16,2.95,3.28,1.95,5.81,4.71,7.53,8.2,1.74,3.54,2.63,7.62,2.63,12.13s-.93,8.71-2.76,12.29c-1.81,3.54-4.4,6.25-7.71,8.07-3.34,1.83-7,2.76-10.88,2.76Zm.06-43.49c-4.73,0-8.86,1.65-12.27,4.9-3.43,3.27-5.17,8.69-5.17,16.12,0,5.99,1.66,10.8,4.92,14.29,3.29,3.52,7.47,5.3,12.42,5.3s9.25-1.8,12.52-5.36c3.24-3.53,4.88-8.54,4.88-14.91,0-4-.69-7.56-2.06-10.58-1.39-3.08-3.47-5.5-6.17-7.2-2.69-1.7-5.75-2.56-9.08-2.56Z"/><polygon class="cls-2" points="312.97 344.33 312.97 299.57 316.75 299.57 316.75 341.23 340.01 341.23 340.01 344.33 312.97 344.33"/><path class="cls-2" d="m368.28,345.14c-4.08,0-7.54-.59-10.26-1.77-2.65-1.14-4.75-2.88-6.26-5.17-1.31-1.99-2.08-4.23-2.32-6.69l3.54-.31c.37,2.03,1.03,3.77,1.98,5.17,1.15,1.7,2.93,3.09,5.28,4.12,2.29,1,4.9,1.5,7.74,1.5,2.53,0,4.8-.39,6.76-1.15,2.04-.79,3.6-1.92,4.63-3.34,1.04-1.44,1.57-3.05,1.57-4.77s-.52-3.32-1.55-4.64c-1.01-1.3-2.58-2.34-4.79-3.18-1.32-.52-4.13-1.29-8.56-2.35-4.22-1.01-7.19-1.97-8.83-2.84-2.06-1.08-3.59-2.41-4.58-3.97-.99-1.56-1.47-3.27-1.47-5.22,0-2.16.6-4.12,1.83-6.01,1.21-1.85,3.01-3.28,5.37-4.25,2.44-1.01,5.19-1.52,8.19-1.52,3.32,0,6.27.54,8.78,1.59,2.43,1.03,4.32,2.55,5.62,4.52,1.1,1.67,1.78,3.56,2.03,5.63l-3.61.27c-.51-2.73-1.69-4.88-3.54-6.4-2.08-1.7-5.11-2.57-9.01-2.57-4.11,0-7.06.77-9.04,2.35-2.03,1.62-3.06,3.63-3.06,5.97,0,2.06.76,3.77,2.25,5.11.87.79,2.86,2.04,9.97,3.65,4.97,1.13,8.41,2.11,10.22,2.93,2.52,1.16,4.4,2.64,5.58,4.38,1.16,1.73,1.75,3.76,1.75,6.03s-.66,4.42-1.96,6.43c-1.3,2.01-3.21,3.61-5.68,4.74-2.52,1.15-5.41,1.74-8.59,1.74Z"/><rect class="cls-2" x="63.47" y="233.42" width="3.63" height="43.59"/><path class="cls-2" d="m96.64,277.8c-3.98,0-7.34-.58-9.99-1.72-2.58-1.11-4.63-2.8-6.09-5.03-1.26-1.93-2.02-4.1-2.25-6.48l3.39-.3c.36,1.97,1,3.66,1.93,5.03,1.12,1.67,2.86,3.02,5.16,4.02,2.24.97,4.78,1.47,7.56,1.47,2.47,0,4.69-.38,6.6-1.12,2-.78,3.52-1.88,4.53-3.27,1.02-1.41,1.54-2.98,1.54-4.67s-.51-3.25-1.52-4.54c-.97-1.25-2.55-2.3-4.68-3.11-1.29-.5-4.02-1.25-8.35-2.29-4.11-.99-7-1.92-8.6-2.76-2-1.05-3.5-2.34-4.45-3.86-.96-1.52-1.43-3.18-1.43-5.07,0-2.1.58-4.01,1.78-5.84,1.17-1.8,2.93-3.19,5.22-4.14,2.37-.98,5.06-1.48,7.98-1.48,3.23,0,6.11.52,8.55,1.55,2.37,1,4.2,2.48,5.46,4.39,1.06,1.62,1.72,3.45,1.97,5.44l-3.46.26c-.5-2.66-1.66-4.75-3.46-6.23-2.03-1.67-4.99-2.51-8.81-2.51-4.01,0-6.9.75-8.83,2.3-1.98,1.59-2.99,3.56-2.99,5.85,0,2.01.74,3.7,2.2,5,.85.78,2.8,2,9.74,3.57,4.85,1.1,8.2,2.06,9.96,2.86,2.45,1.13,4.28,2.57,5.42,4.26,1.15,1.7,1.71,3.62,1.71,5.86s-.64,4.3-1.91,6.26c-1.27,1.96-3.13,3.51-5.53,4.61-2.45,1.12-5.27,1.69-8.36,1.69Z"/><path class="cls-2" d="m139.56,277.8c-3.98,0-7.34-.58-9.99-1.72-2.58-1.11-4.63-2.8-6.09-5.03-1.26-1.93-2.02-4.1-2.25-6.48l3.39-.3c.36,1.97,1,3.66,1.93,5.03,1.12,1.67,2.86,3.02,5.16,4.02,2.24.97,4.78,1.47,7.56,1.47,2.47,0,4.69-.38,6.6-1.12,2-.78,3.52-1.88,4.53-3.27,1.02-1.41,1.54-2.98,1.54-4.67s-.51-3.25-1.52-4.54c-.97-1.25-2.55-2.3-4.68-3.11-1.29-.5-4.02-1.25-8.35-2.29-4.11-.99-7-1.92-8.6-2.76-2-1.05-3.5-2.34-4.45-3.86-.96-1.52-1.43-3.18-1.43-5.07,0-2.1.58-4.01,1.78-5.84,1.17-1.8,2.93-3.19,5.22-4.14,2.37-.98,5.06-1.48,7.98-1.48,3.23,0,6.11.52,8.55,1.55,2.37,1,4.2,2.48,5.46,4.39,1.06,1.62,1.72,3.45,1.97,5.44l-3.46.26c-.5-2.66-1.66-4.75-3.46-6.23-2.03-1.67-4.99-2.51-8.81-2.51-4.01,0-6.9.75-8.83,2.3-1.98,1.59-2.99,3.56-2.99,5.85,0,2.01.74,3.7,2.2,5,.85.78,2.8,2,9.74,3.57,4.85,1.1,8.2,2.06,9.96,2.86,2.45,1.13,4.28,2.57,5.42,4.26,1.15,1.7,1.71,3.62,1.71,5.86s-.64,4.3-1.91,6.26c-1.27,1.96-3.13,3.51-5.53,4.61-2.45,1.12-5.27,1.69-8.36,1.69Z"/><path class="cls-2" d="m196.86,277.01l-5.37-13.95h-20.97l-5.06,13.95h-3.81l16.74-43.59h4.89l17.84,43.59h-4.26Zm-17.39-40.22c-.57,2.88-1.39,5.78-2.43,8.61l-5.68,15.17h19.18l-5.44-14.42c-1.45-3.83-2.54-7.01-3.24-9.45l-2.4.1Z"/><path class="cls-2" d="m276.19,277.8c-4.09,0-7.45-.7-10-2.08-2.51-1.36-4.25-3.27-5.32-5.85-1.1-2.65-1.66-6.38-1.66-11.07v-25.38h3.63v25.34c0,4.2.39,7.24,1.2,9.29.85,2.16,2.32,3.84,4.37,5.01,1.99,1.13,4.43,1.7,7.25,1.7,4.82,0,8.34-1.16,10.48-3.44,2.15-2.29,3.19-6.4,3.19-12.56v-25.34h3.63v25.38c0,4.46-.5,8.02-1.49,10.58-.96,2.49-2.65,4.47-5.17,6.04-2.52,1.57-5.92,2.37-10.11,2.37Z"/><path class="cls-2" d="m336.28,277.01l-5.37-13.95h-20.97l-5.06,13.95h-3.81l16.74-43.59h4.89l17.84,43.59h-4.26Zm-17.39-40.22c-.57,2.88-1.39,5.78-2.43,8.61l-5.68,15.17h19.18l-5.44-14.42c-1.45-3.83-2.54-7.01-3.24-9.45l-2.4.1Z"/><polygon class="cls-2" points="378.71 277.01 378.71 255.3 352.3 255.3 352.3 277.01 348.67 277.01 348.67 233.42 352.3 233.42 352.3 252.34 378.71 252.34 378.71 233.42 382.33 233.42 382.33 277.01 378.71 277.01"/><path class="cls-2" d="m241.79,278.29l-14.96-.05c-3.93,0-7.53-.96-10.72-2.84-3.17-1.88-5.65-4.56-7.37-7.97-1.74-3.45-2.62-7.41-2.62-11.76s.89-8.32,2.64-11.86c1.72-3.49,4.21-6.18,7.38-7.99,3.2-1.83,6.83-2.76,10.81-2.76s7.66.96,10.87,2.86c3.19,1.89,5.65,4.57,7.33,7.97,1.7,3.45,2.56,7.4,2.56,11.75,0,3.62-.55,6.91-1.65,9.79-1.08,2.84-2.74,5.35-4.92,7.45l-1.68,1.62,2.29.47c1.04.22,2.28.32,3.89.32h0c1.01,0,2.03-.04,3.01-.08.92-.03,1.78-.07,2.58-.07.33,0,1.13,0,1.83.09v3.06h-11.27Zm-14.8-42.46c-4.87,0-8.98,1.7-12.2,5.04-3.21,3.33-4.84,8.31-4.84,14.79s1.61,11.21,4.77,14.63c3.19,3.45,7.32,5.2,12.26,5.2,2.33,0,4.57-.45,6.64-1.32l.1-.04,4.32-2.78.08-.07c3.83-3.5,5.77-8.76,5.77-15.65,0-3.89-.68-7.35-2.01-10.28-1.36-3-3.39-5.36-6.03-7.02-2.63-1.66-5.61-2.5-8.87-2.5Z"/></g></g></svg>