<?xml version="1.0" encoding="UTF-8"?><svg id="Layer_2" xmlns="http://www.w3.org/2000/svg" viewBox="0 0 1301.69 597.6"><defs><style>.cls-1{fill:#fff;}.cls-2{fill:#232c64;}</style></defs><g id="Design"><polygon class="cls-2" points="987.1 143.99 1196.72 143.99 1196.72 202.74 1301.69 202.74 1301.69 597.6 0 597.6 0 202.74 105.07 202.74 105.07 143.99 314.76 143.99 650.92 0 987.1 143.99 987.1 143.99"/><polygon class="cls-1" points="961.36 249.01 961.32 312.85 1002.64 312.91 1011.24 249.03 961.36 249.01 961.36 249.01"/><path class="cls-1" d="m1185.62,311.99c2.63,0,5.05-.23,5.05-3.47,0-2.53-2.34-3.01-4.53-3.01h-4.32v6.48h3.79Zm-3.79,11.71h-3.17v-20.9h7.95c4.91,0,7.36,1.85,7.36,5.95,0,3.77-2.3,5.39-5.39,5.76l5.91,9.19h-3.53l-5.5-9.06h-3.64v9.06h0Zm3.81,4.65c8.23,0,14.65-6.4,14.65-15.13s-6.42-15.05-14.65-15.05-14.74,6.48-14.74,15.05,6.44,15.13,14.74,15.13h0Zm-18.39-15.13c0-10.42,8.43-18.07,18.39-18.07s18.3,7.65,18.3,18.07-8.43,18.13-18.3,18.13-18.39-7.66-18.39-18.13h0Z"/><polygon class="cls-1" points="207.66 466.54 207.66 249.01 148.16 249.01 148.16 518.35 299.73 518.35 299.73 466.54 207.66 466.54 207.66 466.54"/><polygon class="cls-1" points="806.6 518.35 948.2 518.35 948.2 466.49 866.38 466.49 866.38 432.66 948.2 432.66 948.2 382.74 866.38 382.74 866.38 348.74 948.2 348.74 948.2 296.66 806.6 296.66 806.6 296.89 806.6 518.35 806.6 518.35"/><path class="cls-1" d="m435.69,348.74h-52.32v117.52h52.32v-117.52h0Zm59.62,141.28c0,15.63-12.68,28.33-28.29,28.33h-114.93c-15.63,0-28.29-12.7-28.29-28.33v-165.05c0-15.64,12.66-28.3,28.29-28.3h114.93c15.61,0,28.29,12.66,28.29,28.3v165.05h0Z"/><path class="cls-1" d="m712.96,296.66v169.88h-35.93v-169.88h-52.32v169.88h-35.93v-169.88h-59.6v193.36c0,15.63,12.69,28.33,28.3,28.33h70.47c11.87,0,22.92-8.2,22.92-20.08,0,11.89,11.08,20.08,22.95,20.08h70.43c15.67,0,28.32-12.7,28.32-28.33v-193.36h-59.6Z"/><path class="cls-1" d="m1157.12,434.56l.03.02-.39-.78c-.23-.43-.45-.92-.68-1.4l-.37-.7c-9.44-18.9-30.54-34.74-64.54-48.3l-1.16-.45c-6.79-2.65-27.25-10.67-29.5-23.68-.63-3.65.83-9.36,4.91-12.86,4.28-4.35,10.88-6.58,19.5-6.58,13.84,0,29.63,5.66,37.76,9.03,17.22,7.13,32.28,13.51,32.44,13.55l1.51.62v-48.35l-.51-.32c-.32-.23-32.83-20.7-65.68-25.42-3.77-.32-7.51-.49-11.1-.49-30.21,0-53.1,11-68.05,32.64-12.53,17.82-13.89,45.95-3.24,66.98,13.68,23.79,35.64,33.68,56.89,43.31,8.73,3.92,17.82,8.02,26.27,13.09l.1.08c9.62,5.74,14.48,14.54,12.45,22.39-2.07,8.1-11.36,13.56-23.11,13.56-1.59,0-3.24-.13-4.8-.33l-.58-.08c-22.52-3.14-68.27-20.16-68.72-20.34l-1.46-.54v53.04l.73.27c.46.12,44.71,14.8,83.97,14.8h.06c21.43,0,37.64-4.32,48.12-12.83.25-.2,24.24-19.48,25.29-52.32.31-9.08-1.77-18.37-6.13-27.62h0Z"/></g></svg>