<?xml version="1.0" encoding="UTF-8"?><svg id="Layer_2" xmlns="http://www.w3.org/2000/svg" viewBox="0 0 2052.64 438.33"><defs><style>.cls-1{fill:#797979;}.cls-2{fill:#80b841;}.cls-3{fill:#fab516;}.cls-4{fill:#ee5225;}.cls-5{fill:#359dd7;}</style></defs><g id="Design"><path class="cls-4" d="m0,0h208.52c-.01,69.51,0,139.01-.01,208.52H0V0h0Z"/><path class="cls-2" d="m229.81,0h208.52c0,69.51.01,139.01-.01,208.52-69.49-.01-139,0-208.5,0-.02-69.51-.01-139.01-.01-208.52h0Z"/><path class="cls-1" d="m1880.38,79.45c19.22-12.51,44.06-13.68,65.72-7.71.19,12.87.02,25.76.09,38.65-10.29-4.53-22.4-7.49-33.24-3.04-8.59,3.41-13.7,12.22-15.04,21.04-1.62,11.18-.56,22.52-.84,33.76,21.99.05,43.98.01,65.97.03.16-14.28-.18-28.57.19-42.84,14.95-4.26,29.74-9.03,44.62-13.51.13,18.81-.18,37.63.16,56.46,14.87-.21,29.74-.05,44.62-.1v36.62c-14.93-.61-29.87-.16-44.8-.21.06,21.05.01,42.1.03,63.17.24,11.66-.63,23.38.74,35,.83,6.85,3.32,14.44,9.74,17.98,10.76,6.02,24.41,3.39,34.29-3.22v36.98c-12.89,5.6-27.29,7.3-41.23,6.31-13.22-.98-26.93-5.79-35.55-16.31-9.97-11.89-12.54-27.98-12.74-43.03-.11-32.31.01-64.62-.05-96.95-22-.01-44.01-.03-66,.01-.03,50.71-.01,101.42-.01,152.13h-45.1c0-50.7-.06-101.38.03-152.08-10.46-.2-20.93.05-31.38-.16.04-12.04.09-24.08-.03-36.13,10.41-.24,20.83-.14,31.26-.06.76-16.01-1.68-32.47,3.11-48.07,4.04-14.08,13.04-26.78,25.44-34.72h0Z"/><path class="cls-1" d="m914.82,82.08c9.09-1.38,18.94,1.73,24.96,8.84,7.06,7.79,8.37,20.19,3.13,29.29-5.79,10.27-18.74,15.04-30.02,12.57-11.71-2.1-21.47-12.99-20.94-25.12-.34-12.77,10.34-24.16,22.87-25.59h0Z"/><path class="cls-1" d="m569.2,87.67h65.59c20.41,51.84,40.98,103.62,61.42,155.46,5.22,12.96,10.11,26.07,15.58,38.94,26.26-64.77,52.9-129.38,78.96-194.24,21.03-.34,42.07-.08,63.11-.13-.05,87.65-.02,175.31-.01,262.96-15.18-.04-30.35.13-45.51-.09.16-64.69-.01-129.37.08-194.07.03-2.91-.08-5.81-.28-8.72-.89,1.35-1.68,2.76-2.37,4.21-26.06,66.21-52.62,132.24-78.54,198.51-10.8.39-21.6.03-32.41.2-26.89-66.21-53.44-132.58-80.19-198.84-.7-1.38-1.45-2.72-2.27-4.01-.55,28.34-.09,56.71-.24,85.05.01,39.25-.03,78.5.01,117.75-14.31.04-28.63,0-42.93.01-.01-87.67-.03-175.33,0-263h0Z"/><path class="cls-1" d="m1038.93,161.99c21.77-6.2,45.24-5.95,66.99.2,4.48,1.25,8.83,2.99,12.86,5.36-.25,14.36,0,28.74-.14,43.12-14.54-11.11-32.99-18.15-51.47-15.82-14.68,1.33-28.68,8.94-37.46,20.8-11.28,14.7-13.89,34.23-11.95,52.21,1.45,14.08,7.28,28.14,18.22,37.47,11.37,10.11,27.31,13.69,42.19,12.56,14.7-1.69,28.58-7.92,40.46-16.61.13,13.61-.06,27.23.1,40.84-18.43,10.97-40.54,13.8-61.64,12.76-21.59-1.14-43.12-9.32-58.75-24.5-16.98-16.37-26.2-39.71-27.29-63.09-1.1-24.31,3.84-49.67,17.83-69.97,11.72-17.32,30.06-29.58,50.03-35.34h0Z"/><path class="cls-1" d="m1531.55,159.13c20.85-3.67,42.68-.98,62.42,6.5.03,13.83,0,27.64.01,41.45-13.79-9.48-30.63-14.58-47.36-13.99-8.43.33-17.7,3.89-21.54,11.91-3.06,7.93-.94,18.32,6.54,23.07,12.79,8.55,28.04,12.19,41.29,19.85,10.43,5.86,20.55,13.53,25.84,24.57,9.93,20.69,5.72,48.03-11.73,63.46-16.67,15.58-40.68,19.89-62.76,19.06-15.68-1.01-31.43-4.11-45.85-10.52.06-14.54-.09-29.07.08-43.6,12.12,8.8,26.11,15.1,40.91,17.66,10.31,1.68,21.52,1.75,31.12-2.86,9.19-4.57,10.85-17.63,5.39-25.62-5.11-6.16-12.61-9.56-19.69-12.89-13.29-5.97-27.25-10.97-38.92-19.93-8.2-6.4-14.41-15.42-16.84-25.59-3.61-14.99-2.48-31.89,6.24-44.99,9.96-15.27,27.25-24.42,44.87-27.56h0Z"/><path class="cls-1" d="m1219.62,165.06c12.45-7.48,28.27-8.1,41.85-3.53-.06,15.04,0,30.08-.04,45.12-8.89-5.76-19.99-8.23-30.48-7.16-12.8,1.45-22.94,11.28-28.2,22.56-5.71,11.94-6.79,25.44-6.42,38.49,0,30.04.01,60.09,0,90.13h-44.46c-.04-62.79.05-125.6-.04-188.39,14.84-.19,29.68-.11,44.52-.04-.06,10.78,0,21.57-.04,32.36,4.82-11.73,12-23.13,23.31-29.53h0Z"/><path class="cls-1" d="m896.05,162.23c14.95-.06,29.92-.21,44.87.08-.18,62.78-.01,125.58-.08,188.36h-44.77c-.04-62.81.01-125.61-.03-188.43h0Z"/><path class="cls-1" d="m1448.42,206.18c-7.83-17.41-21.95-31.95-39.39-39.81-20.09-9.14-42.92-10.37-64.56-7.61-22.73,2.87-44.86,13.56-59.29,31.69-13.17,16.18-19.59,36.97-20.81,57.6-1.82,24.31,2.24,50.11,16.52,70.4,12.16,17.51,31.36,29.54,52.1,33.98,17.33,3.64,35.47,3.66,52.8.05,20.28-4.17,39.21-15.39,51.77-31.95,12.27-15.59,18.43-35.25,19.83-54.88,1.42-20.1-.61-40.92-8.97-59.45Zm-43.56,86.51c-4.31,9.69-12.2,17.88-22.15,21.77-11.65,4.47-24.73,4.73-36.76,1.62-12.24-3.22-22.62-12.06-28.27-23.32-7.26-14.5-8.35-31.27-6.85-47.18,1.37-14.46,6.4-29.34,17.42-39.32,7.99-7.46,18.89-11.11,29.67-11.71,13.55-.89,27.98,2.94,37.72,12.8,10.42,10.24,14.45,25.11,15.57,39.29.8,15.52.16,31.69-6.35,46.06Z"/><path class="cls-1" d="m1809.59,211.63c-6.94-18.71-20.83-34.89-38.74-43.85-20.54-10.37-44.43-11.89-66.94-9.09-18.15,2.33-35.98,9.22-49.83,21.38-16.91,14.57-26.83,35.98-29.74,57.88-2.78,21.9-1.84,44.97,7.09,65.47,8.57,20.11,25.47,36.44,45.81,44.45,20.08,7.9,42.39,8.79,63.52,5.37,21.6-3.57,42.07-14.93,55.44-32.41,14.29-18.06,20.44-41.43,20.4-64.2.31-15.24-1.59-30.7-7.01-45.01Zm-40.68,63.9c-1.73,9.92-5.16,19.81-11.66,27.66-6.55,7.89-16.29,12.7-26.35,14.18-10.8,1.62-22.17.84-32.26-3.51-10.9-4.61-19.34-14.04-23.78-24.88-5.35-12.92-6.41-27.24-5.35-41.07,1.03-13.39,4.82-27.13,13.66-37.53,8.07-9.72,20.44-15.09,32.91-15.79,12.74-.89,26.34,2.05,36.13,10.66,9.03,7.49,14.03,18.71,16.32,30.01,2.58,13.25,2.55,26.96.38,40.28Z"/><path class="cls-5" d="m0,229.8c69.51.03,139.01-.01,208.52.03.01,69.51,0,139,0,208.51H0v-208.53h0Z"/><path class="cls-3" d="m229.82,229.82c69.49-.03,139-.01,208.51-.01v208.52h-208.52c.01-69.51-.01-139.01.01-208.51h0Z"/></g></svg>