<?xml version="1.0" encoding="UTF-8"?><svg id="Layer_2" xmlns="http://www.w3.org/2000/svg" viewBox="0 0 1301.69 336.5"><g id="Design"><path d="m524.94,240.75c0-48.97,0-96.51,0-144.05.26-.22.53-.64.79-.64,22.19.14,44.47-.91,66.54.77,29.86,2.28,46.9,18.65,52.72,48.17,3.49,17.68,3.24,35.48-1.67,52.91-6.27,22.29-20.88,37.11-43.83,39.65-24.54,2.72-49.44,2.24-74.55,3.18Zm28.8-30.19c11.41,0,22.37.85,33.15-.2,16.94-1.65,27.32-11.27,29.77-27.92,1.39-9.44,1.34-19.39.03-28.85-2.01-14.52-10.35-25.16-25.39-27.4-12.24-1.82-24.82-1.38-37.57-1.96v86.33Z"/><path d="m481.68,167.87c-.02,41.32-30.62,71.98-71.85,71.98-41.34,0-71.95-30.88-71.92-72.55.03-40.68,31.03-71.45,71.95-71.4,41.35.05,71.85,30.6,71.83,71.96Zm-114.81.14c0,18.79,9.59,34.53,25.12,41.28,21.81,9.48,46.59.47,56.51-20.55,10.57-22.41,2.29-51-18.46-61.11-29.52-14.38-63.38,4.07-63.17,40.38Z"/><path d="m699.33,96.23h104.95v26.4h-75.85v30.66h56.78v27.04h-56.89v32.34h75.95v26.81h-104.94V96.23Z"/><path d="m1301.69,239.85c-9.81,0-18.79.13-27.75-.14-1.4-.04-3.36-1.63-3.99-3-2.28-4.95-4.23-10.07-6.07-15.21-.93-2.6-2.07-3.9-5.2-3.87-19.23.17-38.45,0-57.68.22-1.66.02-4.04,1.78-4.8,3.35-2.44,5.06-4.1,10.5-6.46,15.61-.62,1.35-2.63,2.87-4.05,2.91-8.98.26-17.97.13-27.63.13,1.15-3.03,2.08-5.6,3.1-8.15,17.32-43.36,34.73-86.69,51.87-130.12,1.79-4.53,4-6.17,8.8-5.78,5.78.46,11.65.36,17.45.03,3.76-.22,5.48,1.06,6.88,4.6,16,40.46,32.21,80.83,48.35,121.23,2.33,5.83,4.61,11.69,7.18,18.19Zm-50.01-51.18c-6.99-17.97-13.79-35.44-21.05-54.1-7.51,18.83-14.48,36.31-21.58,54.1h42.63Z"/><path d="m1115.26,212.88v26.63h-114.55c-.69-4.67-.79-8.96,2.02-13.42,21.04-33.39,41.87-66.93,62.77-100.41.44-.7.9-1.39,1.86-2.87h-66.83v-26.59h114.55c.64,5.34.71,10.08-2.47,15.03-20.64,32.19-40.97,64.58-61.39,96.91-.82,1.29-1.55,2.64-2.75,4.71h66.78Z"/><path d="m846.22,218.68c6.61-6.51,12.77-12.55,19.15-18.83,11.42,10.77,25.46,13.85,40.78,12.47,2.44-.22,4.89-.76,7.22-1.51,6.29-2.03,10.09-6.31,10.71-13.01.59-6.31-2.59-12.4-8.85-14.89-5.33-2.12-11.2-2.88-16.77-4.43-9.11-2.54-18.46-4.51-27.22-7.98-24.81-9.83-23.25-44.01-10.03-56.89,11.18-10.89,24.38-17.26,40.12-17.67,18.56-.49,35.79,3.14,49.7,16.67.75.73,1.76,1.18,2.65,1.76-6.91,6.67-13.2,12.74-19.89,19.2-8.57-9.77-20.56-11.69-33.51-10.19-6.12.71-11.78,2.54-15.09,8.4-3.72,6.59-2.38,12.78,4.45,16.02,5.33,2.52,11.21,4.3,17.03,5.28,10.71,1.8,20.74,4.93,30.46,9.94,20.9,10.77,25.38,44.38,6.27,61.23-13.21,11.65-28.45,16.26-45.78,15.56-19.57-.8-36.86-6.82-51.41-21.11Z"/><path d="m292.18,168.54c0,26.51-.04,53.01.05,79.52.01,3.49-1.3,5.71-4.3,7.43-27.14,15.54-54.24,31.17-81.35,46.76-19.18,11.03-38.37,22.05-57.53,33.11-2.67,1.54-5.14,1.51-7.81-.05-26.4-15.42-52.82-30.8-79.23-46.2-18.98-11.07-37.96-22.14-56.94-33.22-.87-.51-1.75-1-2.56-1.59C.9,253.15-.03,251.6,0,249.57c.06-4.42.2-8.84.2-13.27.01-49.04.03-98.08-.05-147.12,0-3.73,1.34-6.01,4.57-7.87,31.77-18.29,63.47-36.69,95.2-55.06,13.75-7.96,27.5-15.93,41.24-23.9.52-.3,1.05-.6,1.54-.96,2.48-1.81,5.05-1.81,7.64-.31,5.53,3.2,11.03,6.44,16.54,9.67,22,12.88,44,25.76,66,38.65,18.44,10.81,36.86,21.63,55.31,32.42,2.52,1.47,3.63,3.52,3.62,6.44-.04,26.76-.02,53.51-.02,80.27.14,0,.27,0,.41,0Zm-146.89-98.31c-31.02,51.54-61.86,102.78-92.88,154.31,63.16-.37,126-.74,189.17-1.11-32.21-51.25-64.18-102.11-96.3-153.21ZM55.75,234.21c30.02,30.37,59.72,60.42,89.49,90.54,31.2-30.56,62.24-60.96,93.59-91.67-61.2.38-121.89.76-183.07,1.13Zm99.37-166.5c31.21,49.65,62.17,98.91,93.35,148.52,10.77-42.08,21.43-83.72,32.14-125.52-41.84-7.67-83.45-15.3-125.49-23ZM45.8,216.8c29.96-49.78,59.69-99.18,89.66-148.97-41.63,7.66-82.79,15.22-124.09,22.82,11.47,42.03,22.88,83.85,34.43,126.15ZM150.83,12.56c-.07.53-.12.77-.13,1.01-.1,14.13-.18,28.25-.3,42.38,0,.94.4,1.16,1.22,1.31,5.59.99,11.18,2.02,16.76,3.04,27.53,5.05,55.06,10.11,82.6,15.17,3.19.59,6.38,1.16,9.57,1.74.04-.1.07-.19.11-.29-36.53-21.4-73.06-42.81-109.84-64.36Zm-9.77,1.03c-36.44,21.1-72.67,42.08-108.9,63.06.31.27.5.27.69.24,5.09-.95,10.18-1.91,15.27-2.84,30.4-5.59,60.8-11.19,91.2-16.73,1.29-.24,1.58-.71,1.58-1.94.02-11.97.1-23.93.16-35.9,0-1.85,0-3.71,0-5.89ZM9.95,241.21c.34-.08.5-.08.62-.14,8.89-4.91,17.78-9.83,26.68-14.71.86-.47.9-.96.67-1.81-1.4-4.98-2.76-9.98-4.12-14.98-7.74-28.42-15.48-56.84-23.23-85.25-.09-.33-.28-.64-.42-.96-.06.02-.13.05-.19.07v117.79Zm106.05,68.17c.07-.06.14-.12.2-.18-.22-.25-.43-.51-.66-.75-24.06-24.35-48.13-48.69-72.17-73.06-.69-.7-1.19-.77-2.06-.29-8.7,4.84-17.42,9.63-26.13,14.45-.24.13-.44.35-.77.62,33.94,19.79,67.76,39.5,101.58,59.22Zm161.73-59.23c-.47-.33-.66-.48-.87-.6-8-4.94-16.01-9.86-23.98-14.85-.99-.62-1.51-.42-2.27.33-23.19,22.75-46.4,45.47-69.6,68.21-1.81,1.77-3.5,3.67-5.38,5.65,34.07-19.6,67.99-39.11,102.11-58.74Zm4.66-125.64c-.12-.01-.25-.03-.37-.04-.13.35-.28.69-.38,1.05-8.39,32.77-16.76,65.54-25.19,98.3-.31,1.2-.08,1.77.97,2.41,6.28,3.81,12.5,7.7,18.75,11.55,2.07,1.28,4.15,2.53,6.23,3.8v-117.07Z"/></g></svg>