<?xml version="1.0" encoding="UTF-8"?>
<svg id="Layer_1" data-name="Layer 1" xmlns="http://www.w3.org/2000/svg" viewBox="0 0 1593.622293335012728 1777.557757986363868">
  <defs>
    <style>
      .cls-1 {
        fill: #fff;
      }
    </style>
  </defs>
  <path class="cls-1" d="m1417.957302918710411,1719.124997964105205c-154.481355891173735-55.440194873133805-296.742163918446749-128.305839465510871-423.587124755580589-227.269484474642013-40.139280073042755-31.316318504676019-72.438486662915238-15.376492908690125-107.837886398803676-4.817619949924847-107.575971730624588,32.087602792638791-214.546573245926993,66.204932463147998-323.006674685006146,99.921713064792129-1.999763959007396-22.223541597777512,8.764824561836576-41.86013546938193,9.076602893546806-63.075968952149196,1.19732419810498-81.49615776189421-16.649395215441473-158.958352609673966-49.110341939240243-233.132228920647322-32.884974198961572-75.142528283095089-54.615394725036822-151.989514345279531-49.087907017317775-235.351273743190177,6.885508554940316-103.842681489079041,43.696221394320673-190.756313853935353,127.183049891173141-257.679760091330536,62.116857411956516-49.79315362858506,129.428554505204374-87.434405781832538,206.13206141646333-106.468461754044256,68.308001410641737-16.950589630656395,137.476579588817913-16.454412639390284,207.253509367252263-3.832495825869046,41.426194889081671,7.493636551329473,81.374368186530774,17.631388885254637,120.095105297641567,33.764929968678189,76.286634759737353,31.785737565915042,135.414504684475105,83.878135272221698,185.301422869939415,149.139086723662331,36.215777471312322,47.376517518323453,53.864085716271802,102.852787149340656,77.356504751096509,155.908321265613267,35.547201895060425,80.279976303954754,76.91973185493589,157.121521338624007,131.520666863154474,226.293975317199511,20.634612485500838,26.141677706324117,41.406666817654695,52.175131138774304,64.376001861983241,81.104254709540328-35.233411128523585-3.751029481960359-67.781041619911775-6.889831563154075-100.236398246748649-10.796042132091316-18.884539516757286-2.273007890107692-37.701848802602399-8.521394480172603-56.401393382855531-7.968794778598749-19.412989999935235.573469396114888-19.414629761802644-7.968347570882543-19.922955896683561-22.808340256811789-2.105603124819027-61.479139169865448-10.769358736597496-121.491138803095964-48.460474553283348-173.124626830191119-37.741501222602892-51.702358019612802-133.114515260480403-86.92116036184234-202.065154198435266-44.446039710788682-16.22335530539749,9.993900509878586-30.724215452457429,22.494698559490644-45.6769044896173,34.363070325429362-19.613786276862811,15.568046892038183-11.499350843114371,25.063236233310818,2.497655246497743,35.542878886979452,40.961546043832641,30.668463553845868,86.252957458760648,49.052428536406296,138.353255835270829,47.647003668344041,12.200125376944925-.329144899049425,24.416797440240771-.048745644122391,36.625866972139193-.048745644122391,44.704376716974366,0,43.185808289843408.097789426577947,46.122472471179208,45.787662940729206,8.372921509293519,130.26923052813072,22.140659095897718,259.795201786637335,52.156199344335619,387.32498674807357,7.143249284570629,30.350200709890487,15.75602321354927,60.667606185113982,21.342840481898747,94.021999445360052Z"/>
  <path class="cls-1" d="m40.190668536610247,1718.900499676896288c24.991310321185665-26.942030497622909,44.505741944449255-52.542735903854918,62.986415601433691-79.036962381273042,30.173367314584539-43.257063390386975,39.844197497031928-92.268497883691452,43.976769718732612-142.779867147972254,7.930521249207231-96.931533023438533-19.749215688436379-186.136210657459742-57.374256561133734-274.391317183182764-38.305728325261953-89.851563634618287-63.599202011835587-184.020768962111106-79.924036207532481-280.839829238211678C-.595087596871963,879.871766537671647-1.750933276858632,817.844723347536274,1.84320082180966,756.140787751954122c4.653643777377511-79.89306707139076,27.541139804612612-156.551182396591685,58.259653358263677-230.454796161191553,23.094739549092992-55.562058983137831,53.127422760964691-107.032018045440054,89.808818027868256-155.102266575589965,46.248026045255756-60.607233139575328,100.009663920958701-113.516157650688911,160.640300932489481-158.769127833220409,99.112267049304137-73.974570726708407,208.079502069394948-129.370510666776681,327.48926150035004-163.405759082625082,64.758662621208714-18.458071032338921,129.977651079367206-33.40525382431224,197.41165949040078-38.966459132483578,48.05359004166894-3.962922100818105,96.016918653658649-11.329095128601693,144.225168039884011-8.994987480324198,144.734761263440305,7.007642852970093,286.529578822050098,29.117854555042868,420.413738608804124,88.277038338528655,11.383673106891365,5.030024994344785,17.125075185009337,8.536934949324859,9.960210859728249,25.088969312255358-39.592046864559961,91.465424578582315-77.269150171909132,183.78512774882438-113.735363979605609,276.546075892463705-4.559282943278959,11.597662012058208-9.996285617709873,11.878173068980686-16.857197746718157,9.785017226209675-67.895824940738748-20.714140929165296-136.639704832010466-37.594444409536663-206.655890753114363-49.526580546100377-59.026502836197324-10.059267374937917-117.755761592230556-10.231069683033638-177.457920794004167-4.456425162452433-68.162360755661211,6.592960156316622-134.763370210110224,19.738706306396125-199.463821289940824,40.463170281082057-108.035254082848041,34.605196051135863-205.321870054536703,88.275603547303035-289.155284552625744,166.665903531556978-87.817066540868836,82.115465951997976-149.766891860812393,178.545679095195737-177.747748678906646,295.689287821394828-13.814135390004594,57.83365071537628-11.846234982669557,116.071800834637543-4.734886517275299,175.200341570900491,10.234833681415694,85.098639738514976,33.410629633966892,167.535573523211497,46.298970460626151,252.104793828108086,12.53418956123096,82.244932593775957,8.172013430681545,161.591660871921704-20.859483445818114,238.89494790151366-24.627357752859098,65.576307445102429-56.696774097399611,127.505784812667116-115.174515765080287,170.20518014704794-25.990409687150532,18.977409658011311-56.163404328595789,30.016434663921245-94.318200040524971,33.515388047868328Z"/>
  <path class="cls-1" d="m1425.894345947590409,1777.557757986363868c-95.711848438193556-26.697556931369036-184.98375630292503-65.343610349373193-271.084961267290055-111.632742239637082-63.998707595936139-34.40667308036609-126.133304248458444-72.281293141206334-182.779916543655418-117.492952508471717-24.413219778338316-19.485437654462658-44.347952145621093-9.249150547793761-65.216156142549153-3.180988678377616-110.030396895223021,31.994136374285517-219.609039435057639,65.541872448950016-329.340254350041505,98.564586632906867-9.916309966372864,2.984217271343368-27.501785523141734,5.685352041207807-27.453114413687217-1.422120623759838.081242739965091-11.852794029629877-4.250485996650241-29.379312698973081,17.603363866468499-35.887079780077329,126.371516906367106-37.631786256148189,252.27995019429909-76.823880328798623,378.23183716812855-115.853339852184945,14.497580623759859-4.492350851071023,23.831700642740543,5.271237670900518,31.749066530905111,12.133044215390328,63.972769546868221,55.446157642973048,139.513014582931646,92.078285523548402,212.474510701747931,132.910737598729611,68.031477956057643,38.073180298808438,138.983818753147716,69.690171476282558,212.393417030732962,95.96109222040468,20.638786424571663,7.385784950634843,23.560245542514167,14.506822917093814,23.422207419240294,45.899763015077042Z"/>
  <path class="cls-1" d="m1112.652750477021982,417.714464611182848c-63.680146613454781,9.378430852959355-124.605195389322034,20.832837317791927-169.162440758856974,69.326293442334645-28.924502423964441,31.479586598239621-49.299808953155662,69.297970285289921-62.754650188508094,109.984036359137463-3.664345714360024,11.08061532618558-8.550164844973551,14.968192238897245-18.514847782131255,13.467064913869763-11.597214804287432-1.747240653205154-5.757874230255766-11.465288519933893-6.30160431152035-17.489176822758964-5.247535660386347-58.140025287026219-9.588581225052621-116.363529352647674-15.084913459948439-174.478436471290479-1.959366192844755-20.717457720125822,2.973111612271168-27.780843155014736,26.329281354701379-28.839197546985815,28.839607487325338-1.306666491413125,57.792507603102422-4.9177944843359,86.672885529587802-3.378393629782295,49.8764833381465,2.658500964997074,98.996887451565271,11.114901253138669,147.155049570517804,24.568438132666415,4.201367679395844,1.173696722351451,7.797663282146459,4.513779555527435,11.661240046158127,6.839371622809267Z"/>
  <path class="cls-1" d="m641.175191971497043,688.605710390986133c-17.802147708447592,13.692234012502013-35.833936593238832,27.245013743824529-53.457424808337237,41.309622737313475-5.248355541183628,4.188473189562501-8.248150548986814,2.292834100229811-12.321765883043554-1.339908933654442-11.344020686889053-10.11636089678359-23.316144649428679-19.540593276111395-34.475766676683634-29.84917896800107-35.660345454249182-32.941098770816097-66.224236930722327-71.255622181721264-105.522244703868637-100.35729340675789-11.501586881791809-8.517295075816946-10.769507806066031-16.120572058907783.223976544775724-24.406213523694532,22.1977526178689-16.730190747714005,43.939427872202941-34.076261092617642,66.395815634898099-50.445741528021244,7.028540498158691-5.123435511643038,14.891570645517277-8.170187332469141,22.263939363745521,2.191504278885986,37.600258110276627,52.845793684717137,75.738283531914931,105.309075679562739,113.677003369039085,157.914197063681058.933769768247657,1.294666416961263,1.737700221548948,2.682948321586082,3.216467159474632,4.983012280248658Z"/>
  <path class="cls-1" d="m562.016440014704131,753.126756631043463c-9.769551291738026,11.869936992989096-20.181292903111171,27.032664600470525-33.241845978182027,39.397287892306849-7.236566633586335,6.851073558664211-15.518406832416076-3.692147129075238-22.298821567865161-6.984490535585792-51.597636872873409-25.05369580142542-102.16818662874357-52.25764096754574-154.096682697094366-76.575158288889725-17.359337508043609-8.129267823840564-19.455102062618607-15.346082782147278-9.662295968097169-30.176236897597846,17.226889481215039-26.088310915671173,36.818240836353652-50.031068147913174,59.471549075353323-71.620394630983355,6.634699545553303-6.323144817826687,10.583618453887539-7.237908256820447,17.643388959681033-.344051824005874,45.042391236407639,43.984148646442918,90.567915904890469,87.473238320995733,135.843302375660642,131.219621517340784,3.35718852928585,3.243821366306292,7.874061271613755,6.162671772399335,6.341405800543725,15.083422767414959Z"/>
  <path class="cls-1" d="m469.729904752215589,864.719324708437853c-4.772601036938795.877868800125725-8.432027466213185-2.731395827087908-12.858713313737098-4.40343104484964-52.776625553553458-19.935924921248443-105.522170169202582-40.003999730583018-158.831606481795461-58.43007677579044-8.923322439306503-3.084317271232067-9.280268753120254-6.704911161288692-8.816141650213467-13.246069753929987.163789836033175-2.308262767290216,1.356865560519509-4.537667902508474,2.036174122764351-6.816116820236857,19.862172910865411-66.621655545221074,25.760395837738542-69.369523524203032,86.325815053380211-39.127919761425801,40.892303378219367,20.418238472415396,81.631363569822497,41.143559595309853,122.437803061251543,61.733823979815497,4.760302824010068,2.401952789412462,11.258305869436299,3.093857703004687,12.657395294476373,9.272405350462577,1.420182723613834,6.271343254145904-36.20795133593856,50.750252733969319-42.950726086126451,51.01738482595465Z"/>
  <path class="cls-1" d="m836.171184301558242,608.906582410942065c1.450667384857297,8.288622849802778-1.896160831705856,12.983856947263121-11.818060894771406,11.603699316632628-1.592432239389382-.221516902245639-3.316418090136722-.309616827747959-4.85921027000586.052994117531853-12.967012122051528,3.046900889950848-33.997850668294632,12.430511899319754-37.291312094175737,8.143876610103689-8.83555791974868-11.499798050786922-10.845011379866264-28.665643675147294-14.192510408100134-43.883154230923537-10.993857023915552-49.977403219021653-20.959210772671213-100.183814069732762-32.264100782025707-150.088322426452578-3.215647278473625-14.195268189174385-3.724197017290862-22.538636720215436,14.473580474843402-24.827781356478226,17.068428870979915-2.147118910288555,34.733060198432213-5.194988750441553,50.787445511272381-10.312536026909584,20.454611368957558-6.520177095871986,19.477611518936101,6.211752822429844,20.229740408642101,16.901247709722156,3.830930598716805,54.441878120558613,7.289858889602328,108.924452145953182,9.57836998150924,163.447312135380344.418735517085224,9.975788596164421,6.414077058927433,18.184733932925155,5.35605807281172,28.962664151393255Z"/>
  <path class="cls-1" d="m439.590115285645879,942.703485527283192c.089888756405344,25.075832584869204-18.998652025877163,26.5385000439328-32.924626618909315,28.748824315453021-55.817041931370113,8.859483534153696-80.120099535657573,46.430002329469062-93.335759163071998,96.068273009666882-6.756712724991303,25.378741296130102-14.944862901795204,50.376387060501656-26.665469775836755,76.023602071914866-7.334505129369063-31.389660574513982-15.063671092155346-62.693680866203067-21.895514717947663-94.192385595390078-7.224417489853295-33.308479932056798-3.735302676273932-67.282777659194835-5.448592808397734-100.935533018942806-.916850408491882-18.009801170719584,5.59188562278905-22.714277561393828,21.788669334611768-20.258808912007225,43.233845855053005,6.554351221129764,87.284628455166967,5.599711758335616,130.342609865259874,14.280908472224837,9.045894628510723,1.82371317731122,18.77370653082653.265119657080504,28.138683884291822.265119657080504Z"/>
  <path class="cls-1" d="m625.764934878185159,452.230591786685181c28.712004211383828-10.86025371047981,56.518412742394503-21.377909022306994,85.041620751311712-32.16675856321126,15.729787025868063,68.367889981029293,31.446754096394216,136.21802519720768,46.898079767392119,204.12845892428777,4.442039979994661,19.523152174100687-12.554462978869196,17.519363345405509-23.020167657938146,22.740737352878568-11.867551884981367,5.920732383247014-18.979123954306488,3.26618175337353-24.305517246766613-8.515431710320627-27.799327741709931-61.489797621059552-55.816892862238092-122.881023202049619-84.614015613999072-186.187006003634451Z"/>
  <path class="cls-1" d="m600.091260075338141,465.124858115899769c11.125634238875136-3.064640130560292,11.557413315016674,4.346412057600901,13.648184049829069,8.866079848410664,26.995248219138375,58.356026627006941,53.979092640884119,116.721370081826535,79.985564539618281,175.517933603359779,1.186069469846188,2.681532163667725,9.983987404659274,13.550841831018261-.068795457958913,14.032633639873893-15.144764762982959.726041771331438-27.756843006087365,27.965390883731743-43.271523107285248,7.381685546184599-38.453232346233563-51.016863083650605-74.862427166495763-103.572940685147842-112.263603296254587-155.387286977165786-2.891272595426926-4.005490687855854-7.666705948115123-7.624370281651863-2.3070702134155-12.13460944257713,20.040347929369091-16.864278536007987,43.436095556882719-28.152211918497414,64.277243485466897-38.276436218086019Z"/>
  <path class="cls-1" d="m433.251467266121836,923.287216003780486c-57.284405072030495-5.222864699848287-108.942713128753894-10.103839079911268-160.643692257810471-14.481108471798507-8.792849580446273-.744377288792748-7.33666663344593-6.196734095650754-8.042397719731525-11.746507655894675-2.382499252747948-18.73479945735744,3.46079165649644-36.556102564189132,6.466735770634841-54.53474826206002,3.255486035044669-19.471350610479931,10.02226093416175-29.968210762357558,35.134093742248297-18.802104222619164,47.835427197389436,21.270318292843513,97.911216119910023,37.521325943434931,147.166304298511022,55.557214232589104,6.452015182652758,2.362673042633105,14.471344436229629,5.278616598508961,10.136485245395306,12.359033195076336-6.584239605281255,10.754824485025892-6.128758518747418,26.923545910898611-21.308927227915774,31.442803761234245-4.47975449966907,1.333573490723211-9.692333421595322.205417423472682-8.908601851331696.205417423472682Z"/>
</svg>