<?xml version="1.0" encoding="UTF-8"?>
<svg id="Layer_1" data-name="Layer 1" xmlns="http://www.w3.org/2000/svg" viewBox="0 0 2000 2000">
  <defs>
    <style>
      .cls-1 {
        fill: #fff;
      }
    </style>
  </defs>
  <path class="cls-1" d="m1758.1523458495,964.9492495539c-.1411179231-.1027024885-.2954068523-.1797685542-.4493821862-.25683462-1.4773478569-.7578816457-3.2112167384-.6936729908-4.8682547506-.5908921034-17.0837357672,1.117497153-33.9233375275,4.2645052364-51.0969183724,4.8296825183-16.7626140934.5651772819-33.5507862106-.5394624604-49.9921218325-3.917668741-7.7840646367-1.6056083692-15.478127398-3.6864705437-23.0310722363-6.1783778687-55.0400667385-18.1883755095-109.8877427085-57.1982301754-151.839122082-95.7970396908-42.876015365-39.4080424055-75.1424716779-86.9084137107-115.8606372014-127.4724471027-4.1360095276-4.1103731049-5.6773308429-5.6517728191-5.6773308429-5.6517728191,3.8918755207-12.2796896716,8.9656920459-32.5488489568,12.8448669535-44.8413960392,15.516386035-49.2472543952,33.9231807298-97.3769332385,57.6990420046-143.2716961745,41.3732662819-79.8179436659,93.3821200328-152.5070802512,150.0152513251-222.0748451758,7.8737529167-9.7107946797,16.0175114596-19.3058726625,22.8382110748-29.7230409461,5.0608023168-7.7326349936,9.4665038751-16.3643479549,11.9199173666-25.2016226908,5.3820807883-19.4214325618-4.7782528753-37.4813123624-24.0584107163-43.2487234796-7.7069201721-2.2863455503-16.1845010019-2.8900950645-24.2896873124-2.6845332899-27.2824848654.7064520027-53.1134934932,8.3234486982-78.3408310055,18.162660688-113.3559508646,44.1220866257-211.8503028573,111.7117702631-301.6359542217,192.6087172486-51.4821703024,46.3571593306-91.6995239967,102.3222540549-130.6195335849,159.1479329133-2.1707072522,3.1855019168-4.4314163799,6.3325100002-6.6921255075,9.6079353936-67.4612663274-16.3001392999-133.239779821-18.1754396999-202.2937971068-11.1107628755-6.7049829183-21.5280095579-9.3638797855-38.0979192874-13.06320774-56.4403485296-15.49090641-76.7095862137-15.8634577269-153.7273582915-4.1360879264-230.8479896556,5.1765190137-33.9746887718,12.1641297724-67.6538922924,17.9828137349-101.5129427661,2.7488203438-16.1331497576,6.6664890848-32.2020908603,4.1874391707-48.7976370125-4.1745817599-27.9248066119-26.4090433204-40.4999031358-52.4456137228-29.3890618615-14.9257291281,6.3581464229-28.2072776546,15.3752681119-39.4208998162,27.0127144358-11.8942809439,12.3824705589-23.5831569109,25.0346331485-34.5397876548,38.252051419-37.9309297451,45.7790462391-65.932724024,97.6851975015-92.0077882598,150.7473397505-31.8552543649,64.8537207044-53.8328813054,133.1498563444-70.2742953261,203.2957343606-12.8062947212,54.7448166839-27.3081996869,113.7412811934-30.5836250803,170.245838378,0,0-4.0975156941,3.4681297572-8.0151844352,5.9343222606-38.7015904028,24.4309620332-76.9921356552,51.495106112-118.7250958433,70.5697021784-44.1221650246,20.153599386-99.9202702065,26.7558798158-145.3525583491,6.8334786271-1.6056083692-.6935945919-3.7121069664-1.3358379396-4.8681763518-.0385722323-.5266050496.5908921034-.6679581692,1.425839815-.7835180684,2.2093578834-2.4276986699,17.4047790422.0256364227,33.961831361,4.3029990699,50.8400053536,4.2131539922,16.608403563,10.2501787413,32.7158384991,17.5332747511,48.2196023198,2.2607091276,4.791110286,4.6241207437,9.5308693278,7.1160280687,14.2192771254,18.3810014745,34.6554259529,41.9770157962,64.9821380144,74.5901518068,87.4735125938,8.2978122755,5.7288388848,24.8291497728,16.0689411026,33.8461930629,21.6692842786,3.5195594003,37.8025124351-61.3727335364,144.1452161184-87.9873386314,196.4109044892-30.4937016038,59.8827634653-48.3865918621,93.4978367297-57.5834821053,160.5865517402-18.2654415753,133.239779821,30.7377572118,289.1122089421,121.602333497,388.2103888478,92.3031951121,100.6909308642,242.0101037753,129.8358587187,374.5306525816,118.4038957706,125.1346719093-10.776705392,244.7846389406-56.9540961684,356.4192647391-114.5118634522,82.0660305793-42.3110732796,161.8838958463-91.8922283606,224.6696117869-159.5846144864,39.6520980135-42.7734696742,72.9460496042-90.363764456,86.3817302622-147.3050032137,13.3586929912-56.6586893161,28.5414135369-157.4008930257,28.5414135369-157.4008930257,50.0949811186-3.2112167384,96.5676219496-9.6850798582,141.8586353715-33.1912491022,40.3584716174-20.950053264,76.645220761-49.8381464986,105.7774480025-84.8146941254,20.5262291018-24.6492244209,37.4556759397-52.2656883709,50.3005428932-81.6418928216,12.998999085-29.7101835353,21.6948423025-61.1029631068,26.0365704024-93.2152088894,1.6056083692-11.9329315751,2.7358061353-23.9557082278,2.6716758792-36.0041997021-.0257148215-3.2369315599-.4881112161-7.0775342352-3.1342290714-8.7730660809Zm-1180.892733611-311.3466705026c2.5432585692-13.8981554515,3.3139192268-27.8733769688,6.6921255075-41.7330385869.3468364954-1.3615527611,3.2112167384-19.3315090852,4.4829244218-19.6140585268,29.5303365823-6.281158756,65.752798672-11.1750499293,96.0410169001-10.0960466097,7.0390404017.25683462,14.0522875831.9119353784,21.078470574.9247927892,12.009919242.0513512442,19.5627072825-6.4994995425,19.9737524329-16.7882505161.3853303288-10.263036152-6.5637081975-17.2377894999-18.342507641-18.8049040356-13.3072633481-1.7982343342-26.4346797431-2.2478517169-39.8704388001-1.6441022026-14.0265727615.6422433477-28.0017942788,2.1707856511-41.9256645519,3.8277452645-9.6207928044,1.1303545638-19.2030917752,1.9653022753-28.7596759246,3.853460086,3.2112167384-17.4047790422,23.9814230493-98.7127711781,34.7454278283-120.0995060152,22.0160423752-1.4643336484,36.4793751086-.192625965,54.7576740946.064208655,10.9181369105.1413531196,21.8234164102,1.2202780404,32.7671897433,1.3487737492,3.7379001868.0513512442,7.7712072259-.9633650215,11.2264795724-2.5176221465,5.728760486-2.5561159799,9.1069667667-7.2701602002,9.1069667667-13.8339467965,0-6.8077638056-4.1488669383-10.9181369105-9.7877823467-13.3072633481-3.9048113303-1.6569596134-8.2463826325-2.4919073249-12.4723940354-3.0955784403-21.6692842786-3.0442271961-31.6369135784-3.6608341211-54.5136184866-4.0975156941-1.8496639773-.0128574108-14.6173864661.5908137046-17.5717685845.3467580965,1.1047181411-3.4809087691,1.8496639773-6.3967186552,2.9543821184-9.145538999,14.1678474823-35.8628465825,19.3057942637-43.3128537357,33.7305547648-71.9568913623,3.3782062807-6.6922039064,15.7735342503-28.4771264831,15.7735342503-28.4771264831,12.009919242,1.6955318457,33.152598471,5.9857519037,45.0725942365,6.8206212164,4.6113417318.2954852511,8.3106696863-.3211216738,12.0999211174-3.2240741491,2.9671611303-2.2606307288,5.0993745491-5.536134521,5.8957500283-9.2226050647,1.7854553223-8.1051079117-1.7211682684-16.1587861803-9.8134187693-19.0617386556-6.8849082702-2.4790499142-14.3991240785-3.3011402149-21.6565052667-4.6498355653-3.3396340484-.6037495142-8.2463826325-1.0790033196-12.7420860662-1.5927509584,1.3358379396-2.8516012311,7.6427115171-12.3824705589,8.8501321467-14.1936407027,18.0341649791-27.0255718466,33.8333356521-44.8927472834,56.97981099-67.7951670131,4.9067485841-4.8682547506,10.0318379547-9.5822989709,15.9404453938-13.1402738058,5.4334320325-3.2626463814,12.1255575401,1.682674435,10.7255109455,7.8866887263-.1027808873.4881112161-.2183407865.989079843-.3082642631,1.4771910592-4.4057799572,24.9961393151-8.9271982124,49.9664854098-13.7055294865,74.8855586591-12.318183505,64.3271156548-18.355286653,129.1551215376-15.3881255227,194.6510855897,1.9138726323,42.233928815,7.3215898433,83.7614056273,15.4524125765,125.1732441416,1.6312447919,8.3491635198,3.3524914591,16.6854696288,5.1892980256,25.7411635501-83.4916351977,16.4285566099-151.5437152297,43.7881075411-225.5815471653,87.8459855118.5137476388-7.3215114444,1.9395874538-21.527931159,2.9029524753-26.755801417Zm-107.1390791624,433.9380054439c-2.2607091276-25.3171825901,5.8829710164-55.6053224192,22.0418355955-75.5020087864,8.0793930902-9.9419144782,19.2030917752-17.7259007161,31.7653308884-20.2049506302,15.2982020461-3.0314481841,31.6626283999,2.2221368953,43.3899982003,12.4980304581,36.9803437355,32.407574236,26.7044501727,106.0214252117-15.5166212315,129.6690259741-18.9076849229,10.5970152366-44.1221650246,8.5545684967-61.0773266841-4.9325418045-12.9605052516-10.3016083843-19.151740531-25.265752947-20.6032167687-41.5275552112Zm347.261025127,511.3542788567c-3.0442271961,8.4518660082-10.0961250086,14.8871568957-17.6745494718,19.7168394141-40.5127605466,25.7924363954-86.7414241684,43.223008658-134.4857726828,49.0803432517-46.3827957533,5.6773308429-96.8374707781.4750970077-138.9429038843-20.8600513887-6.4994995425-3.288361203-12.8448669535-7.1289638783-17.8543964249-12.4083421781-5.0094510726-5.2790647045-8.6317129613-12.1640513735-8.8244173251-19.4469905856-.1798469531-6.576722406,2.5561159799-13.1788460381,7.3215898433-17.7002642934,4.7782528753-4.534275666,11.5218080258-6.9105446929,18.0727372114-6.3838612444,8.8886259801.7065304015,16.4927652649,6.2810019583,24.4823132774,10.2373213305,10.4428831051,5.1893764245,20.8729087994,10.006201532,31.3928579703,9.3639581844l-1.7725979115-77.7885895332c-1.3102015169-28.1174325769-.5394624604-30.3908423176-1.74688309-58.5084316922-.2055617746-4.7782528752-.4110451504-9.5565057505-.6037495142-14.3347586258-.2697704296-6.4610057091-.5009686269-16.6854696288-.5009686269-16.6854696288-20.8343365671-18.3810798733-41.4118385142-37.0832814205-62.0920429498-55.6440514492-8.2207462098-7.3729410875-17.1479444222-15.0155742057-19.6526307591-26.3191198439-2.3121387707-10.4684411289,2.4148412592-22.1188232625,11.3548184835-28.0147300885,15.5679724757-10.2758935628,31.8681117757.0128574108,43.78818594,10.6613022905,22.1958893282,19.8581141348,39.8190875558,35.7730799036,62.4388794452,55.1559402331,28.6826098588-16.6856264265,56.1320842665-35.6702206175,83.9797464138-53.7044639954,15.8377429053-10.263036152,36.2225404886-17.7515371387,48.9774839656,1.5157632915,7.2573027894,10.9952813751,6.1141692137,24.9189164516-3.3653488699,34.3985913329-3.5580532337,3.545195823-7.8867671252,6.3838612444-12.1255575401,9.1453822013-29.170721075,18.9333213456-65.3033380871,40.0632215627-94.730893782,58.5855761568,0,0-.4367599719,8.7345722475,0,16.8780171949,2.5946098134,48.386670261,2.8258864095,77.5831845563,5.0223084833,125.9954128412.3725513169,8.1307443344.9762224323,11.9457889858,1.5285423034,20.950053264,15.734962018.3981093408,30.1854373407-2.8645370407,44.5331317761-6.024324136,19.1260257095-4.2002965814,37.5840932497-11.0594116312,55.1558618343-19.6398517472,15.5936872973-7.6170750944,34.2316017906-24.6108089862,52.240130347-24.0841255378,8.3876573532.2312765962,16.5184800865,4.778409673,21.1811730625,11.7659420328,4.662692976,6.974674949,5.7544753075,16.1973584126,2.9029524753,24.0969829486Zm282.7154902869-448.2987140877c-4.0204496283,23.0050438194-15.3881255227,46.2672358541-35.9784848806,57.3009326638-21.7335713325,11.6502253358-50.3005428932,6.5508507867-68.8484555112-9.6849230605-18.5608484276-16.2360874426-27.3981231635-41.9129639388-26.1264938789-66.5364735382,1.49004847-28.72126049,15.6450385415-66.305196942,43.6469112192-78.6876675009,24.4822348786-10.815434422,53.8970115616-.5266834485,70.3127891596,19.5241350502,12.8320095427,15.6706749642,18.5609268264,35.952770059,18.7791892141,56.3761398746.0900018754,7.2830960098-.5393840615,14.5917500435-1.7854553223,21.707856511Zm190.3738797402-400.0405395356c-4.6242775414,12.3567557374-10.5071701589,24.4437410451-17.3021549526,35.7729231059-9.6207928043,16.0304472692-23.763003864,27.2054187996-42.7990276981,29.6331174696-8.7345722474,1.1303545638-18.034243378.3468364954-26.7559582146-1.2844866953-45.2138689572-8.464723419-81.9630144954-24.007059472-118.7250174444-52.2143371266-30.3909991153-23.3134648801-38.6374601466-52.0089321497-27.1669249662-87.9359873872,6.0755969814-19.0489596437,13.0247139066-37.5198845947,25.4198850785-56.0550182008,8.246617829,3.1085142499,13.8210893858,5.600343176,21.2197452948,8.8501321467,38.2134791866,16.6854696288,71.340441235,39.4593936497,105.6490306925,62.8499245956,3.5323384122,2.3891264376,7.1675361106,4.8425399291,11.3421178705,5.7673327183,5.9214648498,1.2973441061,12.4851730474-.9633650215,16.3643479549-5.6132005868,3.8920323183-4.6755503868,4.9323850068-11.5218080258,2.5818308015-17.1093721899-2.0295893292-4.8424615303-6.152741446-8.4133721748-10.2244639197-11.7530062231-36.2738917328-29.6202600588-76.439815784-54.5778271416-120.6776191067-70.0815909623-2.479128313-.8862989557-4.8423831314-2.0937195853-7.2959534206-3.1598654941,10.8924220889-20.8857662102,56.2348651538-77.9297858552,76.9537986194-96.59341517,7.0003897706,3.2497889707,14.6430228888,6.2040926902,21.6562700702,10.2245423186,26.7302433931,15.2982020461,52.625382277,31.5341326911,75.4250211195,52.4070414905,4.9711140368,4.547054678,10.1860484851,9.4795180836,16.7883289149,10.7254325466,6.0113099275,1.1175755519,12.5494601012-1.245914463,16.4286350088-5.9599586833,3.8920323183-4.7141226191,4.9709572391-11.5860950797,2.7102481115-17.2635043214-1.6825960361-4.2002965814-4.9066701852-7.5785028621-8.1564591559-10.7255109455-15.2598650103-14.874299485-32.3177291583-28.1045751662-50.6729374124-38.9199311893-5.2922357106-3.0955784403-19.8069980872-12.074127897-48.8362092448-27.9504430346,2.3632548184-2.3120603719,5.7030456645-5.1764406149,8.5031388536-7.8353374821,28.8752358238-27.5779701166,59.9470505191-52.4841075563,91.866513539-76.4012435517,5.9216216475-4.4314947787,10.6998745228-4.598484321,17.0065913026-1.4129824042,20.269237684,10.2373997293,38.9585818205,22.8382110748,55.5540495739,38.3933261397,3.9434619614,3.7121853653,7.9253393575,7.6427115171,13.0375713173,9.3253859521,5.9086074391,1.9395874538,12.8321663404.3467580965,17.2892975418-3.9819557949,4.4571312014-4.3287138914,6.2681445475-11.1878289412,4.5214182553-17.1607234341-1.3359163384-4.4699886122-4.3931577429-8.1950313882-7.6170750944-11.5732376689-13.9495066958-14.5788926327-31.9066056091-26.4603945647-49.7097291886-35.7729231059-2.6845332899-1.4257614161-5.3176369368-2.9928759518-8.9271198136-5.0608807156,1.7213250661-1.5798935476,2.6204030338-2.6973907007,3.7634582107-3.4039211022,50.3648299471-31.6625500011,102.5921028833-59.8185548103,158.7883958049-79.7280985882,15.6963897857-5.5489135329,32.4847187006-8.1307443344,48.8874820902-11.5218080258,2.8259648084-.5780346927,6.2425865237,1.61846578,9.3639581844,2.5432585692-.8606625331,2.8258864095-1.0532100992,6.1398840352-2.7102481115,8.3748783413-4.8682547506,6.5637081975-9.9933441213,13.06320774-15.6322595296,18.9847509887-93.8059441951,98.5843538681-165.3519472047,211.2723465634-212.5954054911,338.2952546822-15.3752681119,41.3219150377-29.8128860238,83.0163813923-45.3165714457,124.3254390193Zm369.1613508052,362.5721629827c-29.36334704,49.2727340202-75.1167568564,87.5505002607-132.4818197764,100.588071578-26.3064192308,5.9857519037-53.4347719647,5.7416178968-77.9043062302-5.6517728191-28.9266654669-13.4742528904-50.146253964-36.7748603598-54.68052963-68.476060992-3.8791749076-27.0254934477,4.0204496283-55.5540495739,21.2453033187-76.7352226363,10.8027338089-13.2944059373,25.3173393878-23.8271341201,41.7331169858-28.6953888708,33.3709392575-9.877784222,68.6943233797,4.1617243491,100.2669499042,18.7920466249,32.8701274283,15.221292778,88.0901979176,22.5299468117,124.8520440689,12.5237452797-2.4661141045,7.6426331182-10.1344620443,26.0108555808-23.0307586409,47.6545818356Z"/>
</svg>