<?xml version="1.0" encoding="UTF-8"?>
<svg id="Layer_1" data-name="Layer 1" xmlns="http://www.w3.org/2000/svg" viewBox="0 0 2000 2000">
  <defs>
    <style>
      .cls-1 {
        fill: #fff;
      }
    </style>
  </defs>
  <path class="cls-1" d="m1715.7222733719,1594.3395598526c-22.148944666-37.4456366554-69.7105794348-50.5406207091-106.6252763956-68.0524601442-46.7973219386-22.2006472509-93.1803907504-45.9814646353-138.1515204694-71.7181259814-56.9003548779-32.5626674504-111.8451820179-68.5705927765-164.4063144478-107.7649468301-27.1357933765-20.2319962269-53.6366094409-41.2928149314-79.4509037203-63.1824561133-7.2665058034-6.1524494935-37.5104625264-45.5670533966-50.4114433028-53.2867078494,1.9042994886-10.4785486554,3.8082827534-21.9416599906,6.9037971495-35.0883466292,4.8442317943-20.5558093582,9.1834542424-48.4943367519,12.5249907245-72.8838848762,3.9894789684-29.4669949423,6.4762626247-53.8178056559,6.4762626247-53.8178056559,40.0883186258-2.5775398757,111.4435778415-19.8043826462,147.6720692409-38.6244397804,10.2582988059-5.3234689041,20.2057496548-11.2945640706,29.7389473768-17.8615038588,20.4520879646-14.0923537958,39.0128416148-30.9176714458,54.8926502195-50.0096810144,16.449643822-19.7267497128,29.9849694628-41.8107894519,40.2695148409-65.3325405201,2.8754226585-6.5928701365,5.5177884052-13.2763383806,7.862271369-20.0634489623v-.0129651742c4.7664407491-13.7685406646,8.4706858851-27.8738596346,11.0222954124-42.2123145724v-.0258512925c.7383824819-4.0800770759,1.3860087443-8.1471889777,1.9428787874-12.2660825203,1.3082176991-9.5460047843,2.1892170972-19.1697215579,2.1503215746-28.8064035057-.0259303484-2.5905050499-.4016041764-5.6602472095-2.5127140047-7.0332117237-.1037213936-.0777119893-.2333731356-.1424588043-.3627086538-.2072846753-1.1788821809-.5957655657-2.5648909252-.5439839248-3.898722749-.4662719356-10.6858333307.6994079033-21.2423311432,2.3832994305-31.9151992998,3.3158433016-2.9661788779.2590663162-5.9709370547.4404206431-8.963046281.5439839248-13.4189552968.4533858173-26.8505595441-.4144112388-39.9972461827-3.1215238005-6.2302405387-1.2822873507-12.3956552063-2.9532137037-18.4317343557-4.9608393062-38.650132961-12.7582057483-77.1450000553-38.35240829-108.6974907012-65.2936449975-4.4037320953-3.7562639447-8.6910938465-7.5643095303-12.8099083332-11.3593899416-34.3115429604-31.5264021857-60.138802414-69.5421112262-92.7272421009-101.9881711647-3.2899920091-3.3028781274-4.5333838373-4.5463490115-4.5333838373-4.5463490115,3.1214447445-9.8180362747,7.175749584-26.0345441289,10.2842291543-35.878510752,5.2976966675-16.82531765,11.0226116362-33.5081764957,17.33064322-49.9319690252,8.4450717605-22.0452232724,17.9260925619-43.6758771941,28.8452990283-64.7107655501,33.0934490332-63.8689778984,74.7100770958-122.0257688346,120.0309502944-177.7086622327,6.3080315839-7.7715151496,12.8099083332-15.4394670175,18.2891174395-23.7808964404,4.0280582673-6.1912659601,7.5770375366-13.0949840537,9.5328814982-20.1670122441,4.3132920996-15.5430302993-3.8209317038-29.9851275747-19.2472754353-34.6091885754-6.1657308914-1.8392364497-12.9658066473-2.3055083853-19.4287878741-2.1500844068-1.7616825724.0388164667-3.4844696221.1294936301-5.2202218461.246101142-19.9337972203,1.3081386432-38.9220853954,7.0590630162-57.4961204435,14.2736290668-90.6936070941,35.3345268272-169.5224986765,89.4113197433-241.370118288,154.1350504677-41.1890935378,37.0960512877-73.376245272,81.8859057357-104.5271317415,127.375168087-1.722470826,2.538723409-3.5360140952,5.0514374137-5.3362759664,7.667872812-53.9993180947-13.0302372386-106.6123112214-14.532695383-161.8806352689-8.8983785219-5.388452887-17.2268427705-7.4995627152-30.4643646844-10.4527764189-45.1395188717-.9325438711-4.6110958265-1.787296697-9.1833751864-2.5775398757-13.794471013-.129651742-.6735566109-.2330569118-1.3470341658-.3367783054-2.0205907767-2.2796570928-13.4965091742-3.9894789684-26.9930974043-5.1550797514-40.5025717527v-.0258512925c-3.6267703146-42.7174820305-1.7746477466-85.5385273427,4.7534755749-128.4113542958,4.1450610588-27.1743726753,9.7403242854-54.1156884388,14.3774295163-81.225314299,2.227796396-12.8877784343,5.3492411406-25.7625126385,3.3677830543-39.0518161933-3.3418527059-22.3431060552-21.1386097496-32.3942782977-41.9793367165-23.4958997758-.5698352173.2331359678-1.1270214841.4792371098-1.670926353.7383034259-11.255668548,5.0255861212-21.3068407905,11.9940510299-29.8553177208,20.8794643775-9.533197722,9.9086343822-18.8848830052,20.0246324957-27.6537678969,30.5938583146-30.3606432909,36.6426654704-52.768575217,78.1814234318-73.622267358,120.626873972-25.4904811481,51.900778161-43.0801116284,106.5474853504-56.2397634412,162.6966506841-5.0383931836,21.5400558142-10.4138808963,43.8961270436-14.8694736884,66.4594038923-4.6241400567,23.3015802747-8.2768407197,46.7845148763-9.5977073692,69.7622820198,0,0-3.2773430587,2.7718593768-6.3987878032,4.7536336868-30.9823392049,19.5582815042-61.6279001044,41.201979656-95.0325133184,56.4600132907-35.3085964788,16.1388749209-79.9432641161,21.4235273583-116.30077481,5.4789719385-1.2952525249-.557028155-2.9791440521-1.0621165572-3.9116879232-.0259303484-.4016041764.4662719356-.5312559184,1.1398285464-.6087307399,1.7485592863-1.9428787874,13.9369298173.0129651742,27.1873378495,3.4452578758,40.6968912538,3.3677830543,13.2763383806,8.1860845003,26.1770029332,14.0147208625,38.5725790836,1.8132270454,3.8469411082,3.7172103102,7.6549866937,5.6989846202,11.3852412341,14.727172996,27.7314008303,33.599090827,52.0173856728,59.698302715,70.0084622177,6.6318447151,4.5722003039,19.8689713493,12.8488829117,27.0706512817,17.3304851082.1685472646,1.7485592863.1555820904,3.6914380737-.0645096472,5.8286363622v.0258512925c-.9455090453,10.6599820383-6.2043101903,25.5424209009-13.5742211635,42.2123145724-.0259303484,0-.0259303484.0129651742-.0259303484.0129651742-16.2814127811,36.746307808-42.9507761102,81.9765038432-56.732123837,109.0861297035-24.4156365846,47.9373085969-38.7282402299,74.8267636636-46.0851860289,128.5149966335-14.6104864282,106.6251182837,24.6097979738,231.3320693316,97.312486635,310.6533213099,65.565518376,71.5239645921,167.2947022805,97.921059263,263.4931326056,96.560980867.1034051698-.673398499,32.6273352095-2.5516095273,55.7733333938-3.8857575748.0518606968,0,.1166865678,0,.1815124388-.0128070623,11.2167730254-.6348192002,20.1931007043-1.1398285464,22.1230143175-1.3211828733,75.6296557927-6.7741454075,155.2487905538-18.1853960459,221.3196344999-58.2604332738,13.0951421656-7.8880436055,29.4280994197-2.4999069424,37.3551966598,9.8049920446,4.3132920996,6.6835473,16.0999003423,38.2358798341-8.6651634981,57.3667849253-76.9770852382,59.4908599278-180.7395879257,72.9227803988-276.7179265131,83.1940443789-4.4166972695.4662719356-55.7995799659,6.3208386462-55.7477192691,2.1242331143-.6605914367,53.5845906322,2.6682960951,232.9900305104-2.9013530069,285.8234315984h892.221863119c26.0862467138,0,159.1864088254,1.9558439616,184.4438330617-1.9039832648,16.9160738694-2.5905050499,9.5202325478-288.6082561494,2.7590523145-300.0584023104Zm-502.0529703298-717.6863482158v-.0129651742c2.2796570929-4.2484662286,4.9738835363-8.2637174336,8.0048882852-11.9940510299,8.6392331497-10.6470168641,20.2576103516-19.0790443944,33.391331816-22.951915851,26.7082588516-7.9010087797,54.9577923142,3.3029571833,80.2411468989,15.0249767228,26.3063384514,12.1882914751,70.4875412155,18.0428581857,99.9026754611,10.0122767199-.7254173077,2.2408406262-1.98177431,5.634395917-3.8468620522,9.9087134382,0,0,0,.0129651742-.0129651742.0129651742-3.1992357897,7.3699900291-8.0564327583,17.2527731189-14.5715909056,28.2105588841-23.4827764897,39.4534203698-60.0995906676,70.0732090327-106.0035804815,80.4999760473-21.0608187045,4.7924501535-42.7689474476,4.5981306523-62.3403522379-4.5204186631-23.1463144081-10.7894756684-40.1398630989-29.4281784757-43.7536682393-54.7892450496-2.4349229595-16.8511689425.8806831743-34.4277551926,8.9889766294-49.4008712186Zm-278.543802509-322.7639798516c.5568700431-1.7744896347,1.1396704345-3.5231279769,1.7095056518-5.258722089.3886390022-1.1010120798.7383824819-2.1760147552,1.1270214841-3.2510964865.4142531269-1.2045753615.8417876517-2.409150723,1.2822873507-3.587874792.4401834753-1.2045753615.8936483485-2.3832203746,1.346796998-3.587874792.1685472646-.492123228.3630248776-.9972906862.570151441-1.5024581443.3497434796-.8419457636.6994869593-1.7097428196,1.0621956131-2.5775398757.3753576043-.9455090453.7639966065-1.8781319723,1.1785659571-2.8106758435.3367783054-.8031292969.6994869593-1.6190656562,1.1007749119-2.4221949531.2722686582-.6087307399.5442210926-1.2304266539.8421038755-1.8392364497.4664300474-1.0361862088.9714393937-2.0723724175,1.5023790884-3.1085586263.2333731356-.4792371098.4793952216-.9714393937.7383824819-1.4506765035.6605914367-1.3341480475,1.3730435701-2.6811822133,2.1370401766-4.0153302609.310847957-.5828794474.6476262625-1.2045753615,1.0103349163-1.8133061013.8291387013-1.4118600368,1.670926353-2.8495713661,2.5516095273-4.2614314028.6994869593-1.1268633722,1.4378694411-2.2407615702,2.176251923-3.3676249425,3.1733054413,1.1916101873,5.8286363622,2.2666919186,8.4061762379,3.3676249425.2330569118.1036423377.4790789979.2072846753.7380662581.310847957,1.1659170067.492202284,2.2796570928.9714393937,3.4455740995,1.4766068519,1.411622869.6088097958,2.8494923101,1.2693221765,4.4166972695,1.9428787874,30.5551209038,13.3540503699,57.0689021425,31.5782628825,84.5281924264,50.2817125048,2.8235619617,1.916948439,5.7378801428,3.8857575748,9.0797328488,4.6240610007,4.7278614503,1.0361862088,9.9863463715-.7771989485,13.0821769914-4.4945673706,3.1084795703-3.7432197146,3.9505834458-9.2092264789,2.0722143056-13.6908286753-1.6190656562-3.8857575748-4.9349880137-6.7352498849-8.1857682765-9.4164320983-6.9556578463-5.6732123837-14.0925119077-11.1262539738-21.3975970099-16.3202292478-.9069297465-.6346610883-1.8135432692-1.2822873507-2.7460871403-1.916948439-.9066135227-.6605914367-1.8391573938-1.2952525249-2.7587360907-1.9299136132-.6216959141-.4144902947-1.2048125293-.8160154152-1.8265084434-1.2175405357-3.328571308-2.2666919186-6.6833891881-4.455671848-10.1027167155-6.5669397882-1.1918473551-.7383034259-2.3704133122-1.4636416777-3.5752258415-2.2019451036-.4790789979-.310847957-.9714393937-.6087307399-1.4634835658-.8807622302-1.5801701336-.9714393937-3.1603402671-1.9039832648-4.7405104007-2.8106758435-1.1270214841-.6346610883-2.241077794-1.2693221765-3.3677830543-1.9299136132-1.541274611-.8549109378-3.0955143962-1.7097428196-4.6627193555-2.5516885832-1.0362652647-.5699142732-2.0854957036-1.113898198-3.1476913167-1.670847297-1.0751607873-.5699142732-2.1500053508-1.113898198-3.2251661381-1.6579611788-.8417876517-.4533067614-1.7098218756-.867797056-2.5775398757-1.2952525249-.7772780045-.4015251205-1.541274611-.7771198926-2.3185526154-1.1398285464-.9195786969-.4403415872-1.8002618712-.8807622302-2.7328057423-1.3081386432-4.2225358802-2.0077046584-8.4839672831-3.8857575748-12.8102245569-5.6602472095-1.0751607873-.4404206431-2.162970525-.8808412862-3.2510964865-1.3082176991-1.0362652647-.4274554689-2.0981446541-.8289805894-3.147375093-1.2434708841-2.2148312218-.8419457636-4.4555927921-1.670847297-6.7222847107-2.4480462456-1.98177431-.7253382517-3.8598272264-1.670847297-5.8286363622-2.5386443531,8.7040590207-16.6958240199,44.9970600674-62.353475524,61.5763556314-77.3006612016,5.5952632266,2.6163563423,11.7217823717,4.9607602502,17.3432921705,8.1859263884,21.3846318357,12.2531173461,42.1086722347,25.2315729438,60.3459289774,41.940283082,3.9761975705,3.6267703146,8.1471889777,7.5772747045,13.4316042473,8.5745653906,4.8183014459.9066925786,10.0511722425-.9972906862,13.1340376882-4.7794849793,3.1214447445-3.7561848888,3.9891627446-9.2480429455,2.1759356992-13.8073571312-1.3341480475-3.3547388242-3.9246530974-6.06177233-6.5281233215-8.5745653906-12.2011775933-11.9033738664-25.8402246278-22.4855648595-40.5414672753-31.1378422394-4.2484662287-2.473976594-15.8409130821-9.649647122-39.09063266-22.3690364036,1.9039832648-1.8522016239,4.5722793599-4.1318587168,6.8000757559-6.2690570053,23.1203840597-22.0710745648,47.9762041195-42.005029897,73.5315111386-61.1358559323,4.7275452265-3.5490583253,8.5487931541-3.6915171296,13.6001515119-1.1398285464,16.2425172585,8.1988915626,31.1897819921,18.2630289793,44.4531551985,30.7233519447,3.1603402671,2.9532137037,6.3466108827,6.1265191451,10.4524601951,7.4606671926,4.7019311019,1.5543188411,10.2586150297.2720314904,13.8335246474-3.1863496715,3.5619444436-3.4453369317,4.999497661-8.9631253369,3.6008399662-13.729645142-1.0492304389-3.5749096178-3.4974347963-6.5539746139-6.1009050204-9.2481220015-11.1519471544-11.6832030728-25.5293766707-21.1773471604-39.7641892709-28.638014353-2.1500053508-1.1398285464-4.2614314028-2.409150723-7.1498192356-4.0541467275,1.3860087443-1.2434708841,2.111426052-2.1500844068,3.0180395747-2.71999868,40.3084103635-25.3481013998,82.0929532432-47.8725617819,127.0770481364-63.7911868532,12.5382721225-4.455671848,25.9698763698-6.5021929731,39.103914058-9.2093055348.4661138237-.1035632817.9584742195-.1035632817,1.4375532174-.0388164667.194477613.0129651742.375673828.0517816409.570151441.1036423377.2071265634.0388164667.4272183011.0777119893.6087307399.1424588043.4920441721.1554239785.9970535183.3238131312,1.5023790884.5051674582.5439048689.2331359678,1.1137400861.4662719356,1.6968567014.6994079033.5698352173.2331359678,1.1396704345.4403415872,1.6835753034.6087307399-.3753576043,1.2305057099-.5957655657,2.5646537574-.9322276473,3.8210107598-.064825871.2331359678-.1426169162.492202284-.2074427872.7383034259-.1423006924.492202284-.3367783054.9584742195-.5698352173,1.3729645142,0,.0259303484-.0259303484.0517816409-.0259303484.0647468151-.129651742.2590663162-.2978827828.492202284-.440499699.6994869593-3.8857575748,5.258722089-7.9786417131,10.452697363-12.4990603761,15.2062519938-4.2225358803,4.4297414996-8.3802458895,8.9113436961-12.486095202,13.4058320107-1.7487173982,1.9299136132-3.4844696221,3.8469411082-5.2328707966,5.7898198956-.2074427872.2331359678-.4016041764.4403415872-.5957655657.6734775549-1.9172646628,2.1371982885-3.7953175792,4.2614314028-5.6733704956,6.4244809838-1.5801701336,1.7874548089-3.147375093,3.587874792-4.6886497039,5.4011808933-1.3730435701,1.5802491895-2.7071916177,3.1733844973-4.0543048394,4.7536336868-.9325438711,1.1009330238-1.8650877422,2.1889799294-2.7717012649,3.2899129532-1.8913343144,2.2666919186-3.7693872308,4.5204186631-5.634474973,6.8000757559-1.8780529164,2.2796570928-3.717526534,4.5593141857-5.5566839278,6.8388922226-2.1111098282,2.6294005725-4.1706751834,5.258722089-6.2432057128,7.9010878357-5.6471239234,7.2275312248-11.1519471544,14.532695383-16.514469693,21.9156505863-.8417876517,1.1657588948-1.6965404776,2.3314387337-2.5386443531,3.5101628027-.310847957.427376413-.6346610883.8418667076-.9325438711,1.2822873507-.5439048689.7383034259-1.0751607873,1.4895720261-1.5931353078,2.2407615702-.1555820904.1943195011-.2978827828.3885599463-.4016041764.5958446216l-2.9143181811,4.1188935426c-1.3730435701,1.916948439-2.7068753939,3.833975934-4.015093093,5.7768547214-1.0103349163,1.4636416777-2.0077046584,2.9401694736-3.0050744005,4.4038111512-.7383824819,1.049151383-1.4508346153,2.1112679401-2.1503215746,3.1863496715-.7121359097,1.0750817314-1.4375532174,2.1500844068-2.1370401766,3.2122009639-1.3856925206,2.0594862993-2.7457709165,4.1318587168-4.0669537898,6.2043101903-.7902431787,1.2045753615-1.5675211831,2.409150723-2.3444829638,3.6266912586-.7254173077,1.0750026754-1.4119390927,2.1760147552-2.0981446541,3.276947779-.6868380088,1.049151383-1.3730435701,2.1371982885-2.0206698326,3.2122800199-1.2952525249,2.0205907767-2.551925751,4.0541467275-3.8079665296,6.1005887967-.50532557.8419457636-1.0233000905,1.6838124712-1.5415908347,2.538723409-.8158573033,1.3082176991-1.5931353078,2.6164353983-2.357448138,3.9245740415-.8028921291,1.3082176991-1.5801701336,2.6164353983-2.3700970885,3.9246530974-3.1862706155,5.3882157191-6.3339619323,10.8153269609-9.3905808058,16.2554033768-1.5283094368,2.7329638542-3.0439699231,5.4530415901-4.5463490115,8.1989706185-1.5026953121,2.7459290284-2.9791440521,5.504823231-4.4555927921,8.2766826078-.6476262625,1.2304266539-1.2826035745,2.4479671896-1.9428787874,3.6914380737-.8809993981,1.670847297-1.7227870498,3.3158433016-2.5778560994,4.9866905986-1.2560407786,2.4480462456-2.5127140047,4.8960924911-3.7301754844,7.3699900291-.8677180001,1.7097428196-1.7354360002,3.4194856393-2.5775398757,5.1551588073-.8677180001,1.7485592863-1.7098218756,3.4971185726-2.5516095273,5.258722089-1.2952525249,2.6940683316-2.5775398757,5.3752505449-3.8468620522,8.1082934551-1.670926353,3.5489792694-3.3159223575,7.110923713-4.9220228395,10.698719449-.5957655657,1.3082176991-1.1656007829,2.6294005725-1.7487173982,3.9376182716-.6602752129,1.4766068519-1.3079014754,2.9531346478-1.9428787874,4.4297414996-1.3338318238,3.0438118112-2.6423657467,6.1006678526-3.9243368737,9.1833751864-.634977312,1.5024581443-1.2693221765,3.0049162886-1.8913343144,4.4944883147-.7510314323,1.8004199831-1.4894139142,3.6008399662-2.2148312218,5.4141460675-1.1526356087,2.8625365403-2.292622267,5.7379591988-3.4193275274,8.6134609132-.0129651742.0258512925-.0388955226.0388164667-.0129651742.0647468151-1.0362652647,2.6422866907-2.0595653552,5.258722089-3.0439699231,7.9010087797-.2200917376.4792371098-.4012879527.9714393937-.5698352173,1.4766068519-.3627086538.9455090453-.7254173077,1.8910971465-1.0751607873,2.8495713661-12.2919338127,33.0677558526-23.871415492,66.4334735439-36.2670706983,99.5013084525-3.6912799618,9.8827830898-8.3932110637,19.54531633-13.8461735979,28.6120840046-7.6937241044,12.8359967935-19.0012533492,21.773191782-34.2334356915,23.7160705694-6.9815881947.9066925786-14.4422553873.2720314904-21.4105621841-1.0361862088-36.1892796531-6.7611802333-65.5914487244-19.1956519063-95.0198643679-41.7718939293-24.311915191-18.6645540997-30.9175133339-41.6164699507-21.7340590916-70.3839779338Zm-70.8894616157,365.8181611316c.7254173077-13.7426103162,5.0776049299-30.062839564,13.2633732064-43.05418128v-.0129651742c5.4662439321-8.7041380767,12.6676076408-15.9315902456,21.6695494443-19.8950598096,19.5973351387-8.6652425541,43.1319723252-.4274554689,56.2660100134,15.6207422885,1.1267052603,1.3729645142,2.2018660476,2.8106758435,3.1733054413,4.2743175211l.0259303484.0129651742c8.0175372357,11.8515131696,11.6702378987,26.2936104451,11.8384689395,40.826305828.064825871,5.8416015364-.4401834753,11.6702378986-1.4375532174,17.3693806307-3.2251661382,18.4184529578-12.3048989869,37.0441905909-28.7804731573,45.8648571235-17.395469091,9.3128688165-40.2695148409,5.2457569148-55.1130581809-7.7455848012-14.84354334-13.0043068902-21.9158877541-33.5341068441-20.9055528378-53.260777501Zm-313.5804465533-382.5399154999c.4275345248-2.3055083853.7899269549-4.5981306523,1.1007749119-6.929569386.1555820904-.9066925786.2722686582-1.8133851573.375673828-2.7459290284.2849176086-1.9428787874.5309396947-3.8599062824.7902431787-5.8027850698.0645096472-.427376413.1037213936-.8289015334.1682310408-1.2433918281.2074427872-1.6449960046.440499699-3.3028781274.6994869593-4.947874132.1426169162-1.0361862088.310847957-2.0594862993.4793952216-3.095672508.4661138237-2.8754226585,1.0359490409-5.7638895472,1.7354360002-8.6393122057.2978827828-1.0750817314,2.5775398757-15.4782834842,3.587874792-15.6854891036,23.6253934059-5.0255861212,52.6262745246-8.9372740445,76.8603986704-8.0953282809,5.6471239234.2072056194,11.2427033738.7383034259,16.8512479984.7383034259,9.6366028918.0388164667,15.6723658175-5.193975274,15.9832137745-13.4318414151.3238131312-8.2118567368-5.2328707966-13.7814267828-14.6749960754-15.0508280153-10.6342888577-1.4117809809-21.1386097497-1.8003409271-31.8763037772-1.3081386432-11.2427033738.5310187506-22.4335460508,1.7485592863-33.5598790806,3.0567769854-7.7066892786.9066925786-15.3747992584,1.5931353078-23.0166626661,3.0827073338,2.5516095273-13.9109994689,19.1957309622-78.9715875546,27.7831034152-96.0947879874,17.6414911771-1.1916892432,29.2080076821-.1683891527,43.8444244587.0388164667,8.7170241949.1295726861,17.4599787383.9973697421,26.2029332816,1.1010120798,3.0047581767.0128861183,6.2302405387-.7771989485,9.0019418036-2.0335559509,4.5722793599-2.0465211251,7.2791547538-5.8027850698,7.2791547538-11.0615071588,0-5.4529625342-3.328571308-8.7429545433-7.8360247969-10.6469378081-3.1217609683-1.3211828733-6.6059143667-2.0076256025-9.9863463715-2.4868627122-17.33064322-2.4221158972-25.3222501073-2.9143181811-43.624332721-3.2770268349-1.47644874-.0129651742-11.696168247.4662719356-14.0403349871.2720314904.8677180001-2.784824551,1.47644874-5.1032981105,2.3441667401-7.3052432141,11.3334595932-28.6898750498,15.4525903036-34.6739353905,27.0061416345-57.5739905447,2.7071916177-5.3752505449,12.6287121181-22.7964128165,12.6287121181-22.7964128165,9.6106725434,1.35999934,26.5137812386,4.7794849793,36.0599441348,5.4529625342,3.6783147876.2590663162,6.6315284913-.246101142,9.6754984144-2.5775398757,2.3830622627-1.8133061013,4.0799189641-4.4297414996,4.7275452265-7.3699900291,1.4119390927-6.5021139172-1.3860087443-12.9395600752-7.8493061948-15.2580336347-5.5177884052-1.9947394842-11.5276209824-2.6423657467-17.3432921705-3.7173684221-2.6553309209-.492202284-6.5799840183-.867876112-10.1937891587-1.2952525249,1.0751607873-2.2537267444,6.1265191451-9.895748264,7.0720281904-11.3334595932,14.4422553873-21.6436981519,27.0968978539-35.943257567,45.606107031-54.2711124173,3.9116879232-3.8857575748,8.0305024099-7.667872812,12.7580476364-10.4915138296.2333731356-.1554239785.4923603958-.2849966646.7254173077-.3627086538.1815124388-.0906771635.375673828-.1683891527.5439048689-.2072056194.0388955226-.0259303484.064825871-.0259303484.1037213936-.0259303484.1555820904-.0388164667.2719524344-.0906771635.4275345248-.1036423377.181196215-.0388164667.375673828-.0647468151.5828003915-.0906771635.0907562194,0,.1685472646-.0128861183.2849176086-.0128861183.0777910452-.0259303484.1815124388-.0259303484.2719524344-.0259303484.2978827828,0,.5698352173.0259303484.8421038755.0647468151.1423006924.0259303484.2978827828.0388955226.4272183011.0777119893.1166865678.0259303484.2719524344.0647468151.4016041764.1166075119.1815124388.0388164667.3367783054.1165284559.5179745205.1813543269h.0259303484c.3367783054.1554239785.6476262625.3238131312.9455090453.5310187506.3238131312.1943195011.6216959141.4404206431.8680342239.6994079033.2719524344.246101142.5050093463.5440629807.7251010839.867876112.1166865678.1424588043.2074427872.2849176086.2852338324.4533067614.3367783054.5828794474.5698352173,1.2045753615.6605914367,1.9039832648.0388955226.1295726861.064825871.2720314904.064825871.4274554689.0385792988.5699142732.0126489504,1.178724069-.129651742,1.7874548089-.0777910452.4015251205-.1685472646.803050241-.2333731356,1.2045753615-3.5227326972,19.9987021473-7.162468186,39.9714739462-10.9837161136,59.9054292784-9.8307642811,51.4862878663-14.6879612496,103.3741008531-12.3048989869,155.7800464722l.3111641808,6.3338038204c.1682310408,2.8754226585.3623924301,5.7638104912.5698352173,8.6393122057.116370344,1.7485592863.2330569118,3.523048921.3883227785,5.2846524374.0777910452,1.1398285464.1685472646,2.2796570928.2722686582,3.4194065833.1293355182,1.6061795379.2719524344,3.2122800199.4272183011,4.8313456761.1426169162,1.7744896347.3111641808,3.523048921.50532557,5.2845733815.2330569118,2.2796570928.4534648732,4.5593141857.7124521335,6.8389712785.1941613892,1.8133851573.4012879527,3.652621607.6346610883,5.4659277084.4016041764,3.587874792.8677180001,7.1627844098,1.3471132217,10.7247288533.4272183011,3.2122009639.8936483485,6.3985506354,1.3727273464,9.6107515994.194477613,1.3988948626.4016041764,2.784824551.6346610883,4.209570706.2333731356,1.5413536669.4664300474,3.095672508.7254173077,4.6370261749.440499699,2.6682170391.8806831743,5.2976176116,1.3471132217,7.9658346507.4016041764,2.2795780369.8032083529,4.5851654781,1.2304266539,6.864822571.6087307399,3.3546597683,1.2433918281,6.6834682441,1.8910180906,10.0511722425,1.3082176991,6.6834682441,2.6812612693,13.3410851957,4.144744835,20.6074328872-2.098144654.4015251205-4.1577100092.8160154152-6.2299243149,1.2693221765-2.0725305294.4144902947-4.1188144867.8419457636-6.1654146677,1.3082176991-2.0336350068.4404206431-4.0543048394.8807622302-6.0879398462,1.3471132217-2.2407615702.5050884022-4.4555927921,1.0361862088-6.6704240139,1.5801701336-3.393397179.803050241-6.8000757559,1.670847297-10.1286470639,2.5645747015-1.0881259615.2720314904-2.1632867488.5699142732-3.2125171877.8419457636-3.2122009639.867797056-6.3984715795,1.7485592863-9.5717770208,2.6552518649-1.916948439.556949099-3.833896878,1.1268633722-5.7378801428,1.6967776454-1.3600783959.4015251205-2.6812612693.803050241-3.9894789684,1.2175405357-1.0621956131.3238131312-2.111426052.6605914367-3.1733054414.9973697421-1.0492304389.3367783054-2.111426052.6735566109-3.1603402671,1.0102558604-1.8394736176.5958446216-3.6786310114,1.2046544174-5.5181046289,1.8133851573-5.491541833,1.8651667981-10.9318554168,3.7821152372-16.31999208,5.815671188-1.8650877422.6865217851-3.7172103102,1.4118600368-5.5826142762,2.1242331143-1.3082176991.5051674582-2.6164353983,1.0232210346-3.898722749,1.5413536669-2.3185526154.9325438711-4.6497541813,1.8651667981-6.9553416226,2.8366061919-.9198949207.3755947721-1.852122568.7512686001-2.7849826629,1.1527937206-1.5153442626.6346610883-3.0177233509,1.2693221765-4.5204186631,1.9299136132-1.9558439616.8418667076-3.9246530974,1.7097428196-5.8801808353,2.5905050499-2.1632867488.9714393937-4.3521876222,1.9687300799-6.5154743711,2.966099822-2.2923060433,1.0750817314-4.5978934845,2.1501634627-6.9034809258,3.2640616607-1.4508346153.6994079033-2.9143181811,1.4117809809-4.3907669211,2.1371192326-2.4741347058,1.2046544174-4.9220228395,2.4221158972-7.3831923712,3.6915171296-2.2666919186,1.1398285464-4.5204186631,2.3055083853-6.7871105817,3.4842324543-.2071265634.1035632817-.4145693506.2201707936-.6346610883.3367783054-2.1240750024,1.1268633722-4.2614314028,2.2666919186-6.3984715795,3.4194065833-1.5542397852.8549109378-3.0958306199,1.6967776454-4.6630355793,2.538723409-7.0331326678,3.8598272264-14.1051608581,7.9139739539-21.2420149195,12.1624401826.4016041764-5.8675318848,1.541274611-17.2268427705,2.3185526154-21.4105621841Zm-69.231500437,380.4545779082c-10.3746691499-8.2378661411-15.3355875121-20.2059868226-16.501188295-33.2362240612-.2333731356-2.5127930606-.3111641808-5.1162632847-.2722686582-7.732619627v-.0129651742c.1555820904-14.2219264819,3.9894789684-29.57063728,10.9581019889-42.2123145724v-.0258512925c2.0462839573-3.7432987705,4.3778017469-7.240496399,6.9553416226-10.4138808963,6.4632974505-7.9528694765,15.3618340842-14.1830309593,25.4259715009-16.1647262133,12.2141427675-2.4350810714,25.3348990577,1.7615244605,34.7125146893,9.9993115457,5.2717663192,4.6240610007,9.352001507,10.2843082102,12.2663196881,16.579295564l.0256141246.0258512925c5.880497059,12.6287121181,7.240575455,27.8091128195,4.5722793599,42.2123145724v.0129651742c-3.4193275274,18.7293009148-13.6001515119,36.1374980122-29.2854825035,44.9193480781-15.1158119982,8.4838882272-35.3085964788,6.8388922226-48.8572035176-3.9505043899Zm57.9884808394,414.33827012c-5.1936590502-2.6422076348-10.2582988059-5.7121079063-14.2737081227-9.9346437866-4.015093093-4.2225358802-6.9164461-9.7403242854-7.0720281904-15.5559954735-.1423006924-5.2716082073,2.046600181-10.5561815887,5.8675318848-14.1699867291,3.8209317038-3.6267703146,9.2093845908-5.5307535794,14.4681857357-5.1161842288,7.110923713.5698352173,13.1985473354,5.0254280094,19.5840537407,8.1988915626,8.3543155411,4.1578681211,16.708947306,8.0047301734,25.1148073201,7.486597541l-1.411622869-62.2497541303c-1.0492304389-22.4857229714-.4275345248-24.311915191-1.3989739185-46.8106033366-.1682310408-3.8209317038-.3238131312-7.6548285818-.4790789979-11.4757602856-.2204079614-5.1552378632-.4016041764-13.3411642516-.4016041764-13.3411642516-16.6830169576-14.7142078217-33.1326607795-29.6742796177-49.6860259951-44.5307881319-6.5796677945-5.9064274074-13.7294870301-12.0199813783-15.7242265143-21.0737838786-1.852122568-8.3674388272,1.916948439-17.693193762,9.0797328488-22.4078528702,12.4604810773-8.2249009669,25.5034463223.0128861183,35.0366440443,8.5355908121,17.7708266953,15.8798086047,31.8759875534,28.6252072906,49.97062738,44.1293420673,22.9521530188-13.3541294258,44.9066200718-28.5344510712,67.1978654302-42.9634250606,12.6805728149-8.2120148487,28.9875997207-14.2220055378,39.1943540536,1.2044963055,5.815671188,8.7948152401,4.8960924911,19.9339553322-2.6942264435,27.5241161549-2.8494923101,2.8365271359-6.3077153601,5.1161842287-9.7014287628,7.3182083883-23.3404757973,15.154391297-52.263249647,32.0574999922-75.8111682315,46.888078158,0,0-.3497434796,6.9814300828,0,13.5095534043,2.0854957036,38.714958832,2.2666919186,62.0813649776,4.028374491,100.8094470957.2849176086,6.5151581473.7769617807,9.5589699585,1.2174614797,16.7736150651,12.5898165955.310847957,24.1566493243-2.292622267,35.63240961-4.8184595578,15.3099733874-3.3676249425,30.0757256822-8.8465178251,44.1423072415-15.7243846262,12.4731300277-6.0876236225,27.3944644129-19.6877751343,41.7978242777-19.2732057837,6.7093195365.1941613892,13.2244776838,3.833896878,16.9546531682,9.4163530423,3.7304917082,5.5826142762,4.5982097083,12.9654904236,2.3185526154,19.2863290698-2.4349229595,6.7611802333-8.0693979325,11.9032948105-14.1440563807,15.7760872111-32.4072434719,20.6334422915-69.412696652,34.5963024572-107.6096809635,39.2721450988-37.1218235242,4.5463490115-77.4950597587.3886390022-111.1975557555-16.6828588457Z"/>
</svg>