<?xml version="1.0" encoding="UTF-8"?>
<svg id="Layer_1" data-name="Layer 1" xmlns="http://www.w3.org/2000/svg" viewBox="0 0 2139.04 442.79">
  <defs>
    <style>
      .cls-1 {
        fill: #e11075;
        stroke-width: 0px;
      }
    </style>
  </defs>
  <path class="cls-1" d="M1588.53,1.78c-20.23,6.87-31.07,28.86-24.57,49.9,5.37,17.55,21.27,28.33,39.64,27.17,14.35-.95,26.22-9.3,32.41-22.83,2.48-5.29,2.79-7.29,2.79-16.6s-.41-11.31-2.79-16.6c-3.51-7.72-11.67-16.07-18.99-19.56-7.85-3.7-20.23-4.33-28.49-1.48Z"/>
  <path class="cls-1" d="M0,78v72.94h24.47l.62-12.05c.41-6.55,1.45-15.86,2.27-20.51,9.6-51.69,45.42-81.29,100.65-82.88l9.81-.32v162.27c0,151.7-.1,162.69-1.86,169.56-3.72,14.91-10.63,24.63-21.78,30.44-7.95,4.12-16.72,5.92-33.34,6.77l-13.73.74v29.28h216.79v-29.28l-13.83-.74c-28.6-1.48-43.36-8.88-50.79-25.48-5.68-12.69-5.57-6.77-5.57-182.25V34.45l10.12.63c29.63,2.11,49.96,9.2,67.2,23.15,9.7,7.93,17.03,17.65,23.33,30.87,7.95,16.81,11.87,34.46,11.87,53.49v8.35h24.78V5.06H0v72.94Z"/>
  <path class="cls-1" d="M509.97,17.11v11.95l10.12.63c16.72,1.06,25.19,4.97,32.93,15.33,7.54,10.04,7.02-1.59,7.02,175.69v159.1l-2.48,6.34c-1.65,4.33-4.23,8.14-8.26,12.26-7.64,7.82-14.35,10.47-28.7,11.21l-10.63.63v24h135.23v-24l-11.56-.63c-6.4-.21-14.04-1.27-17.03-2.22-10.01-3.28-18.27-11.52-22.19-22.31l-2.37-6.34-.21-156.98c-.1-94.61.21-155.92.72-154.34.52,1.48,23.54,81.4,51.1,177.6,27.56,96.2,51.1,178.12,52.24,182.04l2.06,7.19h23.33l5.16-18.82c2.79-10.25,25.5-93.98,50.48-186.05l45.32-167.34.31,155.18c.21,112.48,0,156.88-.93,161.53-3.61,19.87-18.38,31.18-40.78,31.18h-5.57v24.31h165.17v-24.31h-7.43c-21.37-.11-34.07-8.14-40.67-25.9-1.86-5.07-1.96-10.57-2.27-159.62-.21-109.09,0-156.35.83-161.1,1.65-9.62,5.37-17.13,11.46-22.73,7.23-6.66,14.45-9.2,27.56-9.94l10.53-.53V5.06h-67c-62.97,0-67.1.11-67.62,1.8-.93,3.07-78.97,291.87-79.7,294.83-.41,1.48-.83,2.43-1.03,2.33-.31-.32-32.72-121.25-73.91-275.48l-6.3-23.47h-134.92v12.05Z"/>
  <path class="cls-1" d="M1220.2,17.11v11.95l10.12.53c15.48.85,23.12,5.39,26.74,16.07,1.75,5.07,1.86,15.33,1.86,174,0,131.93-.31,171.04-1.34,179.71-1.34,11.1-3.92,28.01-5.06,32.45q-.52,2.43,13.21,2.43h13.83l9.81-15.54c5.37-8.46,10.12-15.96,10.53-16.49.41-.74,3.82,1.9,8.26,6.24,21.27,20.61,50.07,32.14,80.31,32.14,66.17-.11,108.81-48.2,116.76-131.61,1.45-15.43.62-48.73-1.55-63.11-7.12-46.62-26.22-81.71-54.61-100.64-18.99-12.69-40.98-18.5-65.24-17.23-23.43,1.27-40.78,8.99-55.95,24.84l-6.5,6.66V5.06h-101.17v12.05ZM1395.7,159.71c8.88,3.28,18.99,14.38,25.19,27.27,5.37,11.21,9.81,27.91,12.49,45.98,2.27,15.65,3.3,66.6,1.65,84.67-4.54,49.58-17.65,79.6-39.33,90.49-6.19,3.17-7.43,3.38-17.55,3.38s-11.25-.11-18.79-3.91c-27.36-13.95-43.05-58.35-43.15-121.99,0-58.67,14.45-103.91,38.92-121.04,11.46-8.03,27.05-9.94,40.57-4.86Z"/>
  <path class="cls-1" d="M1704.36,17.11v11.95l9.08.53c14.76.85,21.89,5.39,25.4,16.49,1.55,4.55,1.65,21.57,1.45,175.69l-.31,170.72-2.27,4.23c-4.75,9.09-10.84,12.26-25.29,13l-10.12.53v24h140.4v-24l-10.53-.53c-20.13-.95-26.84-7.08-28.8-26.11-.52-5.07-.93-90.38-.93-193.87V5.06h-98.07v12.05Z"/>
  <path class="cls-1" d="M1055.03,130.33c-24.78,4.33-45.84,15.43-63.59,33.72-22.92,23.57-37.27,56.77-41.81,96.73-1.55,14.59-.72,49.16,1.65,62.48,5.57,31.71,19.1,61.21,37.37,81.4,17.55,19.45,43.56,33.19,69.89,36.89,10.22,1.48,30.25,1.48,40.47,0,33.45-4.76,64.42-24.74,83.1-53.7,36.65-56.77,36.75-147.68.21-204.02-15.48-23.79-39.95-42.6-65.35-50.11-16.52-4.97-44.49-6.45-61.94-3.38ZM1088.07,155.17c18.07,3.49,32,18.29,40.67,43.13,3.3,9.62,7.23,29.49,8.98,45.67,1.75,15.96,1.75,67.66,0,83.51-4.13,37.63-12.39,61.42-26.32,75.69-10.84,11.1-24.98,15.75-40.05,13.21-30.04-4.97-46.35-34.88-51.51-94.08-1.65-19.03-.62-73.89,1.55-88.9,4.75-31.92,11.77-50.95,23.85-64.27,11.05-12.26,26.22-17.23,42.84-13.95Z"/>
  <path class="cls-1" d="M1961.41,130.75c-24.05,5.29-44.7,18.39-59.87,38.06-23.12,30.02-35.1,69.66-35.1,116.6,0,43.24,9.5,79.92,27.98,107.83,13.32,20.09,33.96,36.05,56.16,43.45,17.76,5.92,43.05,7.82,61.73,4.44,34.38-6.13,61.32-29.28,83.31-71.57,2.89-5.71,5.06-10.78,4.65-11.42-.62-1.06-20.23-11.73-22.81-12.47-.62-.21-2.48,2.64-4.03,6.34-8.16,18.61-20.75,37-31.38,45.77-13.11,10.78-25.5,15.33-41.81,15.33-17.14,0-29.42-5.18-40.36-17.02-15.9-17.34-24.47-49.68-25.5-97.15l-.31-12.16,85.06-.32,84.96-.21-.62-9.3c-6.3-83.51-39.12-134.57-94.04-146.2-12.49-2.64-35.72-2.64-48,0ZM2002.18,157.71c7.54,3.49,14.76,11.21,19.82,21.35,5.16,10.25,7.95,19.56,10.63,35.94,1.96,12.16,4.34,42.39,3.41,43.98-.21.53-23.23.85-51.1.85h-50.69l.62-13c1.24-24.74,6.19-47.99,13.63-63.64,7.23-15.22,16.41-24.21,28.29-27.7,7.02-2.01,18.48-1.06,25.4,2.22Z"/>
  <path class="cls-1" d="M2112.02,131.17c-5.16,3.49-8.47,10.57-7.74,16.81,1.14,10.57,6.4,15.86,16.62,16.49,5.16.32,6.81,0,9.81-2.11,1.96-1.37,4.65-4.12,5.88-6.03,5.16-7.82,1.75-21.99-6.3-25.9-5.26-2.54-13.94-2.22-18.27.74ZM2129.47,133.71c6.19,3.91,8.36,14.48,4.34,21.14-5.78,9.73-21.06,8.67-25.19-1.8-2.17-5.5-2.06-7.93.31-13.43,3.51-7.82,13.21-10.68,20.54-5.92Z"/>
  <path class="cls-1" d="M2115.43,146.39c.21,5.29.72,8.25,1.65,8.56.83.21,1.24-.74,1.24-2.85,0-4.33,2.99-4.44,5.47-.11,1.03,1.69,2.58,3.17,3.41,3.17,1.86,0,1.86-.53-.31-3.81-1.65-2.64-1.65-2.85,0-3.81,2.06-1.06,2.37-6.13.52-8.03-.72-.74-3.72-1.27-6.71-1.27h-5.57l.31,8.14Z"/>
  <path class="cls-1" d="M1537.12,149.35v12.16h7.02c14.87.11,22.5,3.91,26.84,13.53l2.79,6.03.31,101.91c.21,89.33.1,102.65-1.34,108.25-3.3,13.32-10.01,17.76-27.56,18.5l-11.15.53v24l71.02-.21,70.92-.32.31-11.73.31-11.73-11.15-.53c-9.19-.42-12.08-.95-16.31-3.07-6.19-3.17-10.32-9.41-11.87-17.76-.62-3.59-1.03-49.79-1.03-128.65v-123.05h-99.1v12.16Z"/>
  <path class="cls-1" d="M0,245.55v42.81h83.62v-85.63H0v42.81Z"/>
  <path class="cls-1" d="M267.37,245.55v42.81h83.62v-85.63h-83.62v42.81Z"/>
</svg>