<?xml version="1.0" encoding="UTF-8"?><svg id="Layer_2" xmlns="http://www.w3.org/2000/svg" viewBox="0 0 1307.42 214.87"><defs><style>.cls-1{fill:#e94d97;}.cls-1,.cls-2{fill-rule:evenodd;}.cls-2{fill:#999b9e;}</style></defs><g id="Design"><polygon class="cls-2" points=".02 139.7 42.63 139.7 42.63 97.1 .02 97.1 .02 139.7 .02 139.7 .02 139.7"/><path class="cls-1" d="m102.57,10.05c34.7.61,55.4,23.74,58.44,66.04l11.27-1.83L170.14,0H2.13L0,74.26l11.26,1.83C14.31,33.78,34.7,10.66,69.7,10.05v155.52c0,28.31-4.87,32.88-35.31,33.17v11.87h103.48v-11.87c-30.44-.29-35.31-4.86-35.31-33.17V10.05h0Z"/><polygon class="cls-2" points="129.3 139.7 171.91 139.7 171.91 97.1 129.3 97.1 129.3 139.7 129.3 139.7 129.3 139.7"/><polygon class="cls-2" points="257.11 139.7 299.73 139.7 299.73 97.1 257.11 97.1 257.11 139.7 257.11 139.7 257.11 139.7"/><polygon class="cls-2" points="384.92 139.7 427.53 139.7 427.53 97.1 384.92 97.1 384.92 139.7 384.92 139.7 384.92 139.7"/><path class="cls-2" d="m544.99,210.61l53.86-184.44v144.87c0,15.82-.9,21.61-4.55,25.27-2.75,2.73-9.14,4.55-16.13,4.55h-2.75v9.74h76.1v-9.74h-3.95c-7,0-13.4-1.82-16.13-4.55-3.65-3.66-4.57-9.45-4.57-25.27V47.18c0-15.83.91-21.61,4.57-25.26,3.04-2.74,9.13-4.57,16.13-4.57h3.95V7.61h-59.04l-44.45,149.44L504.51,7.61h-58.74v9.74h5.47c16.13,0,19.18,3.65,19.18,24.05v117.79c0,18.87-.91,26.17-3.65,31.97-3.04,5.77-9.44,9.73-16.13,9.73h-4.86v9.74h62.69v-9.74h-3.95c-7.91,0-14.31-3.35-17.96-9.44-3.65-6.09-4.56-11.55-4.56-32.25V26.18l53.57,184.44h9.43Z"/><path class="cls-2" d="m716.89,66.35c-37.73,0-62.39,29.22-62.39,74.57s24.66,73.95,61.48,73.95,61.78-29.83,61.78-74.26-24.64-74.26-60.86-74.26h0Zm-1.22,9.74c10.97,0,20.4,6.7,25.57,18.26,4.88,10.65,7,25.27,7,46.26,0,43.22-10.65,64.53-32.27,64.53s-31.95-21.31-31.95-65.13c0-20.39,2.12-34.7,7-45.66,4.85-10.96,14.6-18.26,24.64-18.26h0Z"/><path class="cls-2" d="m828.28,5.48l-43.21,2.13v9.44h2.12c12.79,0,15.51,4.25,15.51,24.34v139.1c0,17.65-.61,22.52-3.04,30.12h10.04c7.6-12.17,9.43-14.29,12.48-14.29,1.53,0,3.04.6,5.17,2.42,14.91,12.18,21.3,14.91,35,14.91,32.87,0,56.61-31.65,56.61-75.77s-21.91-70.31-54.79-70.31c-17.03,0-29.51,7.91-35.9,22.83V5.48h0Zm31.66,72.74c19.48,0,29.51,20.7,29.51,60.87s-10.33,63.92-30.12,63.92c-21.93,0-33.49-22.22-33.49-63,0-20.09,2.75-34.4,9.14-45.05,5.77-10.34,15.51-16.74,24.96-16.74h0Z"/><path class="cls-2" d="m975.27,68.48l-44.42,2.13v9.43h3.35c12.79,0,15.51,4.27,15.51,24.34v72.14c0,20.1-2.73,24.66-15.51,24.66h-4.87v9.43h66.34v-9.43h-4.85c-12.79,0-15.55-4.27-15.55-24.66v-108.05h0Zm-14.6-62.39c-9.42,0-17.03,7.3-17.03,16.74s7.61,16.74,16.72,16.74,16.75-7.3,16.75-16.74-7.31-16.74-16.44-16.74h0Z"/><path class="cls-2" d="m1052.26,5.48l-44.45,2.13v9.44h3.35c12.79,0,15.53,4.25,15.53,24.34v135.13c0,20.39-2.75,24.66-15.53,24.66h-4.87v9.43h66.34v-9.43h-4.85c-12.79,0-15.52-4.27-15.52-24.66V5.48h0Z"/><path class="cls-2" d="m1193.79,139.7c-1.54-45.04-23.43-73.35-56.62-73.35s-55.1,30.75-55.1,73.35c0,45.96,22.83,75.17,58.13,75.17,22.84,0,38.65-11.86,51.74-38.35l-9.13-4.87c-10.65,22.53-21.3,31.36-37.75,31.36-24.04,0-34.38-18.86-34.68-63.31h83.4Zm-83.09-10.66c.31-31.95,10.95-52.04,28-52.04s27.08,19.48,26.78,52.04h-54.78Z"/><path class="cls-2" d="m1282.86,84.46c-2.5-2.48-3.71-5.47-3.71-9.02s1.24-6.49,3.74-8.97c2.47-2.5,5.45-3.74,8.95-3.74s6.54,1.24,9.01,3.74c2.5,2.48,3.76,5.49,3.76,8.97s-1.27,6.52-3.76,9c-2.47,2.5-5.49,3.73-9.01,3.73s-6.52-1.23-8.98-3.71h0Zm-1.97-20.03c-3.04,3.05-4.55,6.69-4.55,10.98s1.51,7.98,4.55,11.02c3.04,3.06,6.7,4.57,10.97,4.57s7.95-1.51,10.99-4.57c3.04-3.04,4.58-6.74,4.58-11.02s-1.54-7.91-4.58-10.93c-3.04-3.01-6.68-4.55-10.99-4.55s-7.98,1.51-10.97,4.51h0Zm13.66,11.92c2.14-.86,3.2-2.34,3.2-4.42,0-1.5-.58-2.72-1.7-3.6-1.15-.91-2.6-1.33-4.36-1.33h-5.27v16.81h3.31v-6.67h1.91l4.42,6.67h3.71l-5.2-7.46h0Zm-4.82-6.6h1.89c1.99,0,2.98.74,2.98,2.28,0,1.61-1.06,2.43-3.14,2.43h-1.73v-4.71h0Z"/><polygon class="cls-2" points="1230.06 139.61 1272.66 139.61 1272.66 97 1230.06 97 1230.06 139.61 1230.06 139.61 1230.06 139.61"/></g></svg>