<?xml version="1.0" encoding="utf-8"?>
<svg version="1.1" id="Layer_1" xmlns="http://www.w3.org/2000/svg" xmlns:xlink="http://www.w3.org/1999/xlink" x="0px" y="0px"
	 viewBox="0 0 2363 1056" style="enable-background:new 0 0 2363 1056;" xml:space="preserve">
<style type="text/css">
	.st0{fill:#E20074;}
</style>
<g transform="translate(0.000000,1056.000000) scale(0.100000,-0.100000)">
	<path class="st0" d="M17018,7341c-196-65-301-273-238-472c52-166,206-268,384-257c139,9,254,88,314,216c24,50,27,69,27,157
		c0,87-4,107-27,157c-34,73-113,152-184,185C17218,7362,17098,7368,17018,7341z"/>
	<path class="st0" d="M1630,6620v-690h118h119l6,114c4,62,14,150,22,194c93,489,440,769,975,784l95,3V5490c0-1435-1-1539-18-1604
		c-36-141-103-233-211-288c-77-39-162-56-323-64l-133-7v-139v-138h1050h1050v138v139l-134,7c-277,14-420,84-492,241
		c-55,120-54,64-54,1724v1533l98-6c287-20,484-87,651-219c94-75,165-167,226-292c77-159,115-326,115-506v-79h120h120v690v690H3330
		H1630V6620z"/>
	<path class="st0" d="M6570,7196v-113l98-6c162-10,244-47,319-145c73-95,68,15,68-1662V3765l-24-60c-16-41-41-77-80-116
		c-74-74-139-99-278-106l-103-6v-113v-114h655h655v114v113l-112,6c-62,2-136,12-165,21c-97,31-177,109-215,211l-23,60l-2,1485
		c-1,895,2,1475,7,1460c5-14,228-770,495-1680s495-1685,506-1722l20-68h113h113l50,178c27,97,247,889,489,1760l439,1583l3-1468
		c2-1064,0-1484-9-1528c-35-188-178-295-395-295h-54v-115v-115h800h800v115v115h-72c-207,1-330,77-394,245c-18,48-19,100-22,1510
		c-2,1032,0,1479,8,1524c16,91,52,162,111,215c70,63,140,87,267,94l102,5v118v119h-649c-610,0-650-1-655-17c-9-29-765-2761-772-2789
		c-4-14-8-23-10-22c-3,3-317,1147-716,2606l-61,222h-654h-653V7196z"/>
	<path class="st0" d="M13450,7196v-113l98-5c150-8,224-51,259-152c17-48,18-145,18-1646c0-1248-3-1618-13-1700
		c-13-105-38-265-49-307c-5-23-5-23,128-23h134l95,147c52,80,98,151,102,156c4,7,37-18,80-59c206-195,485-304,778-304
		c641,1,1054,456,1131,1245c14,146,6,461-15,597c-69,441-254,773-529,952c-184,120-397,175-632,163c-227-12-395-85-542-235l-63-63
		v730v731h-490h-490V7196z M15150,5847c86-31,184-136,244-258c52-106,95-264,121-435c22-148,32-630,16-801c-44-469-171-753-381-856
		c-60-30-72-32-170-32c-102,0-109,1-182,37c-265,132-417,552-418,1154c0,555,140,983,377,1145C14868,5877,15019,5895,15150,5847z"/>
	<path class="st0" d="M18140,7196v-113l88-5c143-8,212-51,246-156c15-43,16-204,14-1662l-3-1615l-22-40c-46-86-105-116-245-123
		l-98-5v-113v-114h680h680v114v113l-102,5c-195,9-260,67-279,247c-5,48-9,855-9,1834v1747h-475h-475V7196z"/>
	<path class="st0" d="M11850,6125c-240-41-444-146-616-319c-222-223-361-537-405-915c-15-138-7-465,16-591c54-300,185-579,362-770
		c170-184,422-314,677-349c99-14,293-14,392,0c324,45,624,234,805,508c355,537,356,1397,2,1930c-150,225-387,403-633,474
		C12290,6140,12019,6154,11850,6125z M12170,5890c175-33,310-173,394-408c32-91,70-279,87-432c17-151,17-640,0-790
		c-40-356-120-581-255-716c-105-105-242-149-388-125c-291,47-449,330-499,890c-16,180-6,699,15,841c46,302,114,482,231,608
		C11862,5874,12009,5921,12170,5890z"/>
	<path class="st0" d="M20630,6121c-233-50-433-174-580-360c-224-284-340-659-340-1103c0-409,92-756,271-1020
		c129-190,329-341,544-411c172-56,417-74,598-42c333,58,594,277,807,677c28,54,49,102,45,108c-6,10-196,111-221,118
		c-6,2-24-25-39-60c-79-176-201-350-304-433c-127-102-247-145-405-145c-166,0-285,49-391,161c-154,164-237,470-247,919l-3,115l824,3
		l823,2l-6,88c-61,790-379,1273-911,1383C20974,6146,20749,6146,20630,6121z M21025,5866c73-33,143-106,192-202
		c50-97,77-185,103-340c19-115,42-401,33-416c-2-5-225-8-495-8h-491l6,123c12,234,60,454,132,602c70,144,159,229,274,262
		C20847,5906,20958,5897,21025,5866z"/>
	<path class="st0" d="M22089,6117c-50-33-82-100-75-159c11-100,62-150,161-156c50-3,66,0,95,20c19,13,45,39,57,57
		c50,74,17,208-61,245C22215,6148,22131,6145,22089,6117z M22258,6093c60-37,81-137,42-200c-56-92-204-82-244,17c-21,52-20,75,3,127
		C22093,6111,22187,6138,22258,6093z"/>
	<path class="st0" d="M22122,5973c2-50,7-78,16-81c8-2,12,7,12,27c0,41,29,42,53,1c10-16,25-30,33-30c18,0,18,5-3,36
		c-16,25-16,27,0,36c20,10,23,58,5,76c-7,7-36,12-65,12h-54L22122,5973z"/>
	<path class="st0" d="M16520,5945v-115h68c144-1,218-37,260-128l27-57l3-964c2-845,1-971-13-1024c-32-126-97-168-267-175l-108-5
		v-113v-114l688,2l687,3l3,111l3,111l-108,5c-89,4-117,9-158,29c-60,30-100,89-115,168c-6,34-10,471-10,1217v1164h-480h-480V5945z"
		/>
	<path class="st0" d="M1630,5035v-405h405h405v405v405h-405h-405V5035z"/>
	<path class="st0" d="M4220,5035v-405h405h405v405v405h-405h-405V5035z"/>
</g>
</svg>
