<?xml version="1.0" encoding="UTF-8"?>
<svg id="main" xmlns="http://www.w3.org/2000/svg" viewBox="0 0 500 500">
  <g id="main-2" data-name="main">
    <g id="logo">
      <path id="big_arc" data-name="big arc" d="M124.66,232.79c.84-3.37-1-3.74-1-3.74-8.4-5.36-43.11-19.61-43.22-19.13-1.52,8.86-1.83,11.93-2.08,28.3,.03,57,25.27,108.42,23.81,137.97-1.67,34.01-22.79,49.94-22.79,49.94,20.51-2.78,30.16-19.47,30.16-19.47,16.8-26.36,18.29-54.5,19.04-64.86,.75-10.36-1.73-27.15-5.56-59.12-3.83-31.97,.8-46.53,1.64-49.9Z"/>
      <path id="S_partabots2976" data-name="S partabots2976" d="M127.63,208.6c-1.47-1.39-3.27-2.56-5.4-3.5-3.15-1.39-5.98-2.12-8.5-2.19-2.52-.07-4.9,.16-7.15,.68l-4.38,.94c-1.53,.33-2.94,.51-4.24,.55-1.29,.04-2.78-.31-4.47-1.05-.79-.35-1.51-.83-2.18-1.45-.67-.62-.87-1.23-.6-1.83,.24-.55,.69-.84,1.35-.86,.66-.02,1.5,.14,2.53,.5,1.03,.35,2.22,.82,3.58,1.39l1.37-6c-1.36-.57-2.82-1.09-4.38-1.57-1.56-.47-3.11-.76-4.66-.85s-2.94,.15-4.18,.73c-1.24,.58-2.21,1.65-2.89,3.21-1.11,2.51-.97,4.95,.43,7.31,1.4,2.36,4.02,4.39,7.88,6.1,2.73,1.21,5.19,1.84,7.38,1.91,2.19,.06,4.25-.13,6.2-.59l4.54-1c1.74-.4,3.39-.61,4.93-.61,1.55,0,3.25,.41,5.13,1.23,.79,.35,1.49,.78,2.11,1.3,.62,.52,.78,1.11,.49,1.78-.23,.53-.69,.86-1.38,1-.69,.14-1.68,.05-2.96-.28-1.29-.32-2.91-.91-4.87-1.74l-1.13,6.06c3.4,1.42,6.3,2.28,8.69,2.59,2.39,.31,4.36,.08,5.91-.69,1.55-.77,2.71-2.11,3.52-3.93,.69-1.56,.79-3.09,.28-4.67-.51-1.58-1.5-3.07-2.96-4.46Z"/>
      <path id="s_P_artabots2976" data-name="s P artabots2976" d="M117.64,192.6l1.39-2.61c.85-1.6,1.23-3.24,1.16-4.92-.08-1.69-.91-3.43-2.49-5.23-1.58-1.8-4.25-3.7-8-5.7-3-1.59-5.69-2.67-8.09-3.23-2.39-.56-4.44-.56-6.15-.01s-3.02,1.71-3.96,3.48l-4.44,10.3,47.49,25.26,3.82-6.3-20.72-11.02Zm-6.34-6.16l-1.16,2.18-12.89-6.85,1.14-2.14c.46-.87,1.08-1.36,1.86-1.48,.78-.11,1.67,.03,2.66,.42,1,.39,2.12,.92,3.35,1.57,1.48,.79,2.66,1.5,3.55,2.14,.89,.64,1.46,1.3,1.72,1.96,.26,.67,.18,1.4-.25,2.2Z"/>
      <path id="sp_A_rtabots2976" data-name="sp A rtabots2976" d="M145.33,193.4l-9.29-8.33,3.07-4.15,10.77,6.49,4.58-5.56-52.25-30.21-4,7.48,42.88,40.33,4.24-6.05Zm-15.14-13.51l-17.37-15.16,19.59,12.16-2.22,3Z"/>
      <path id="spa_R_tabos2976" data-name="spa R tabos2976" d="M160.65,174.99l-20.62-19.61,1.52-1.61,23.43,16.8,5.9-5.55-26.14-17.96c.07-1.52-.22-3.02-.88-4.5-.66-1.48-1.65-3-2.97-4.57-1.32-1.57-2.94-3.25-4.84-5.05-3.23-3.05-6.07-5.07-8.5-6.04-2.43-.97-4.59-1.15-6.46-.53-1.88,.61-4.42,3.33-6.05,5.05l-4.25,6.15,44.69,43.09,5.16-5.68Zm-25.01-26.74l-1.49,1.58-12.78-12.08,1.73-1.83c1.01-1.07,2.26-1.29,3.74-.64,1.48,.65,3.21,1.9,5.19,3.77,1.37,1.29,2.45,2.49,3.26,3.58,.8,1.09,1.25,2.11,1.35,3.03,.1,.93-.23,1.79-.99,2.59Z"/>
      <path id="spar_T_abots2976" data-name="spar T abots2976" d="M138.47,118.72l33.52,45.32,6.39-5.37-34.18-45.68,3.97-3.97-6.04-8.16c-9.98,9.2-13.91,14.09-13.91,14.09l5.96,8.06,4.28-4.28Z"/>
      <path id="spart_A_bots2976" data-name="spart A bots2976" d="M188.21,151.75l-6.82-13.08,4.57-3.01,9.07,11.53,6.59-3.86-44.48-54.8c-5.43,3.83-7.38,5.74-7.38,5.74l32.3,61.99,6.15-4.51Zm-11.22-21.13l-13.18-23.65,16.49,21.48-3.31,2.17Z"/>
      <path id="sparta_B_ots2976" data-name="sparta B ots2976" d="M212.98,137.58c1.67-.73,2.93-1.95,3.89-3.27,.95-1.32,1.52-2.95,1.72-4.89,.19-1.94-.02-4.24-.63-6.89-.61-2.65-1.66-5.67-3.15-9.05-1.37-3.12-2.78-5.67-4.21-7.67-1.44-2-2.9-3.46-4.38-4.38-1.48-.92-2.96-1.25-4.43-.98,.88-.84,1.46-1.96,1.73-3.36,.28-1.4,.22-3.09-.16-5.08-.38-1.98-1.15-4.29-2.31-6.92-1.61-3.65-3.19-6.47-4.75-8.44-1.56-1.97-3.12-3.34-4.66-4.1-1.55-.76-3.07-1.07-4.58-.92-1.5,.15-2.99,.55-4.46,1.19l-8.53,4.86,28.66,65.09,10.27-5.18Zm-16.59-40.87c-.3,.93-1.02,1.65-2.18,2.16l-1.48,.65-7.24-16.44,1.31-.58c.96-.42,1.89-.48,2.78-.17,.89,.31,1.76,.97,2.59,1.98,.83,1.01,1.63,2.38,2.38,4.1,.8,1.83,1.38,3.43,1.74,4.81,.36,1.38,.39,2.54,.09,3.47Zm2.09,11.64c1.1-.48,2.12-.53,3.07-.15s1.88,1.24,2.8,2.57c.92,1.33,1.93,3.23,3.01,5.7,1.37,3.12,2.1,5.62,2.17,7.51,.07,1.89-.72,3.2-2.39,3.94l-1.61,.71-8.62-19.58,1.57-.69Z"/>
      <path id="spartab_O_ts2976" data-name="spartab O ts2976" d="M209.24,85.67l7.53,25.45c1.38,4.68,2.91,8.61,4.6,11.79,1.68,3.18,3.57,5.44,5.67,6.77,2.1,1.33,4.42,1.21,7.11,.4,2.72-.82,4.68-1.98,5.73-4.26,1.05-2.28,1.41-5.21,1.09-8.8-.32-3.59-1.17-7.72-2.56-12.4l-7.53-25.45c-1.4-4.74-2.93-8.66-4.6-11.79-1.66-3.12-3.55-5.33-5.66-6.64-2.11-1.3-4.52-1.54-7.24-.73-2.69,.81-4.56,2.33-5.6,4.58-1.04,2.25-1.41,5.13-1.11,8.66,.3,3.53,1.15,7.66,2.56,12.4Zm5.92-13.28c.15-.9,.61-1.47,1.38-1.7,.83-.25,1.55-.03,2.17,.64,.62,.67,1.16,1.6,1.64,2.78,.48,1.18,.92,2.44,1.32,3.79l9.75,32.98c.38,1.3,.7,2.58,.95,3.86,.25,1.28,.3,2.37,.15,3.27-.15,.91-.64,1.48-1.47,1.73-.83,.25-1.54,.03-2.15-.64-.6-.68-1.14-1.62-1.61-2.83-.47-1.21-.9-2.46-1.28-3.76l-9.75-32.98c-.4-1.35-.72-2.65-.96-3.9-.24-1.25-.28-2.32-.13-3.23Z"/>
      <path id="spartabo_T_s2976" data-name="spartabo T s2976" d="M236.03,66.44l10.95,60.16,7.98-1.41-10.73-60.21,5.51-.98-2.11-11.82c-10.69,1.63-19.21,3.77-19.21,3.77l2.05,11.49,5.56-.99Z"/>
      <path id="spartabot_S_2976" data-name="spartabot S 2976" d="M257.5,80.52c1.41,2.79,3.06,5.24,4.93,7.36l4.28,4.98c1.67,1.9,3.03,3.82,4.09,5.75,1.06,1.93,1.74,4.36,2.03,7.29,.12,1.23,.09,2.42-.1,3.56-.19,1.14-.79,1.77-1.78,1.87-.79,.08-1.5-.26-2.13-1.03-.63-.76-1.2-2.07-1.69-3.91-.49-1.84-.91-4.28-1.25-7.33l-7.98,2.84c.64,5.26,1.58,9.5,2.85,12.71,1.26,3.22,2.88,5.52,4.86,6.92,1.98,1.4,4.27,2.16,6.98,1.89,2.32-.23,4.3-1.43,5.83-3.18,1.53-1.75,2.63-4.04,3.28-6.85,.65-2.82,.81-5.89,.48-9.23-.49-4.92-1.56-8.98-3.2-12.19-1.64-3.21-3.53-6.03-5.69-8.48l-4.1-4.82c-1.43-1.69-2.61-3.33-3.55-4.92-.94-1.59-1.53-3.7-1.8-6.34-.12-1.23-.04-2.48,.24-3.75,.29-1.27,.88-1.95,1.77-2.04,.82-.08,1.47,.28,1.95,1.09,.48,.81,.86,1.99,1.14,3.52,.28,1.54,.54,3.36,.79,5.47l8.07-2.5c-.25-2.1-.62-4.3-1.12-6.59-.5-2.29-1.22-4.43-2.16-6.44s-2.18-3.58-3.72-4.73c-1.54-1.15-3.47-1.6-5.79-1.37-3.74,.38-6.54,2.27-8.4,5.68-1.86,3.41-2.48,8.13-1.87,14.16,.43,4.28,1.35,7.8,2.77,10.59Z"/>
      <path id="spartabots_2_976" data-name="spartabots 2 976" d="M314.04,113.99l-12.28-.96,9.25-19.62c1.21-2.54,2.35-4.99,3.42-7.33,1.07-2.34,1.97-4.77,2.71-7.29,.74-2.52,1.22-5.28,1.46-8.27,.48-6.16-.1-11.04-1.75-14.64-1.65-3.6-4.35-5.54-8.12-5.84-.3-.02-.59-.03-.88-.03-2.41,0-4.46,.83-6.14,2.48-1.88,1.85-3.36,4.47-4.42,7.85-1.07,3.39-1.77,7.27-2.11,11.67l-.31,3.94,8.39,.66,.29-3.66c.15-1.89,.38-3.59,.69-5.1,.31-1.51,.76-2.7,1.35-3.58,.59-.87,1.35-1.27,2.28-1.2,.83,.07,1.44,.63,1.85,1.71,.4,1.08,.52,2.68,.35,4.81-.17,2.14-.54,4.16-1.13,6.08-.58,1.92-1.29,3.8-2.11,5.63-.82,1.84-1.69,3.74-2.61,5.69l-12.19,26.49-.78,9.91,21.89,2.16,.9-11.54Z"/>
      <path id="spartabots2_9_76" data-name="spartabots2 9 76" d="M322.77,95.62c1.08,2.18,2.76,3.42,5.04,3.71,1.19,.06,2.31-.16,3.35-.68,1.04-.51,1.89-1.36,2.54-2.54l-.99,6.45c-.57,3.7-1.08,6.6-1.53,8.7-.45,2.1-.93,3.54-1.45,4.32-.52,.78-1.19,1.1-2,.98-1.21-.19-1.85-1-1.94-2.45-.09-1.45,.09-3.64,.54-6.56l-8.31-1.27c-.03,.18-.06,.37-.09,.58-.03,.21-.06,.4-.09,.58-.62,4.06-.81,7.53-.56,10.41,.25,2.88,1.06,5.16,2.44,6.84,1.38,1.68,2.94,2.59,5.71,3.01,3.2,.49,6.32-.05,8.34-1.91,2.03-1.86,3.65-4.59,4.88-8.19,1.22-3.6,2.2-7.76,2.92-12.48l4.15-27.04c.71-4.66,.94-8.76,.66-12.32-.27-3.56-1.13-6.42-2.58-8.6-1.45-2.18-3.59-3.48-6.43-3.92-2.87-.44-5.34,.22-7.39,1.98-2.05,1.76-3.74,4.42-5.07,7.98-1.33,3.55-2.38,7.87-3.16,12.94-.6,3.94-.86,7.63-.77,11.06,.09,3.44,.68,6.25,1.76,8.43Zm7.53-13.37c.18-1.77,.45-3.83,.81-6.15,.41-2.69,.82-4.93,1.22-6.73,.4-1.8,.87-3.13,1.4-4,.53-.87,1.19-1.24,1.97-1.12,.82,.13,1.35,.65,1.61,1.58,.26,.93,.35,2.1,.28,3.53-.07,1.42-.24,2.97-.5,4.64l-1.81,11.82c-.34,.56-.77,1.13-1.3,1.73-.53,.59-1.15,.83-1.85,.72-.92-.14-1.5-.74-1.74-1.78-.24-1.04-.27-2.45-.09-4.23Z"/>
      <path id="spartabots29_7_6" data-name="spartabots29 7 6" d="M336.43,129.34l9.64,2.52,29.03-60.92,2.87-9.94c-13.91-3.38-24.03-5.14-24.03-5.14l-1.88,9.62,13.07,3.78-28.71,60.09Z"/>
      <path id="spartabots297_6" data-name="spartabots297 6" d="M372.66,85.38l-8.9,25.99c-1.56,4.55-2.59,8.73-3.1,12.52s-.34,6.97,.49,9.53c.83,2.56,2.21,4.44,4.65,5.28,2.62,.9,5.3,.36,7.51-1.26,2.21-1.62,4.28-4.23,6.2-7.84,1.92-3.6,3.75-7.92,5.47-12.94,1.34-3.9,2.28-7.53,2.84-10.87,.56-3.34,.56-6.14,0-8.38-.56-2.24-1.85-3.64-3.87-4.2-1.07-.3-2.14-.25-3.21,.14-1.07,.39-2,1.15-2.8,2.26l2.19-6.39c1.28-3.73,2.33-6.6,3.16-8.63,.83-2.03,1.57-3.39,2.21-4.1,.64-.71,1.31-.94,2.02-.69,1.05,.36,1.45,1.28,1.21,2.74-.25,1.47-.86,3.65-1.86,6.55l7.28,2.49c.06-.18,.12-.37,.17-.58,.06-.21,.12-.44,.21-.67,1.38-4.02,2.24-7.49,2.58-10.41,.34-2.92,.07-5.33-.84-7.23-.9-1.9-2.56-3.26-4.97-4.08-2.78-.95-5.27-.63-7.47,.96-2.2,1.59-4.22,4.12-6.04,7.59-1.83,3.47-3.54,7.54-5.14,12.21Zm6.49,20.51c0,1.09-.25,2.51-.76,4.25-.51,1.74-1.17,3.8-1.98,6.16-.91,2.66-1.73,4.87-2.46,6.64-.73,1.77-1.41,3.05-2.05,3.86-.64,.81-1.31,1.09-2.02,.84-.68-.23-1.07-.84-1.16-1.83-.09-.99,.03-2.22,.38-3.68,.35-1.47,.79-3,1.34-4.6l4.01-11.71c.27-.37,.6-.74,1-1.1,.4-.36,.82-.63,1.26-.81,.44-.18,.85-.21,1.22-.08,.8,.27,1.21,.96,1.21,2.05Z"/>
      <path id="helmet" d="M386.97,287.82c-6.24-18.55-13.45-31.71-15.16-34.71-.23-.41-.45-.82-.66-1.24-2.97-5.92-29.68-54.75-100.9-50.33-34.56,2.15-69.94,20.29-84.08,66.24-6.18,21.82-2.84,47.42,5.62,75.72,11.03,36.89-1.73,67.17-1.83,67.41,0,0,0,0,0,0l88.94-22.54s0,0,0,0c40.18,33.3,104.81,61.61,104.81,61.61-16.02-48.06-14.69-127.3-14.69-127.39,0,0,0,0,0,0-42.48-.67-52.49-19.85-52.49-19.85,0,0,8.58-19.8,43.21-13.32,34.58,6.47,29.28,58.59,29.26,58.75,0,0,0,0,0,0l32.63,6.09s-27.54-45.26-34.67-66.46Zm-84.9,34.41l1.34,4.99-4.99,1.34-22.82-13.17-11.15,6.44v26.35l-3.65,3.65-3.65-3.65v-26.35l-11.15-6.44-22.82,13.17-4.99-1.34,1.34-4.99,22.82-13.17v-12.88l-22.82-13.17-1.34-4.99,4.99-1.34,22.82,13.17,11.15-6.44v-26.35l3.65-3.65,3.65,3.65v26.35l11.15,6.44,22.82-13.17,4.99,1.34-1.34,4.99-22.82,13.17v12.88l22.82,13.17Z"/>
      <path id="inner_gear" data-name="inner gear" d="M247.08,294.71v15.83l13.71,7.92,13.71-7.92v-15.83l-13.71-7.92-13.71,7.92Zm23.47,13.55l-9.76,5.63-9.76-5.63v-11.27l9.76-5.63,9.76,5.63v11.27Z"/>
      <path id="arc_1_8" data-name="arc 1/8" d="M137.51,292.32c0-40.04,37.03-32.63,37.03-32.63,.49-1.89,1.71-4.78,1.71-4.78l-39.73-11.64c-5.81,19.33,1,49.05,1,49.05Z"/>
      <path id="arc_2_8" data-name="arc 2/8" d="M140.23,229.44l39.73,16.87c1.5-3.14,3.33-6.42,3.33-6.42l-36.2-24.38c-4.37,7.56-6.85,13.92-6.85,13.92Z"/>
      <path id="arc_3_8" data-name="arc 3/8" d="M152.94,206.27l35.92,24.75c1.4-2.51,5.26-6.78,5.26-6.78l-31.3-31.28c-5.69,6.81-9.87,13.32-9.87,13.32Z"/>
      <path id="arc_4_8" data-name="arc 4/8" d="M209.71,209.12l-25.44-37.7c-9.7,7.96-13.38,12.32-13.38,12.32l32.67,30.47c3.04-3.11,6.16-5.09,6.16-5.09Z"/>
      <path id="arc_5_8" data-name="arc 5/8" d="M228.45,197.88l-16.92-44.26c-6.66,3.33-15.66,9.22-15.66,9.22l25.52,38.95c3.09-1.88,7.06-3.91,7.06-3.91Z"/>
      <path id="arc_6_8" data-name="arc 6/8" d="M250.56,191.04l-7.97-49.36c-12.77,3.02-17.02,5.59-17.02,5.59l15.77,46.33c4.55-1.79,9.21-2.56,9.21-2.56Z"/>
      <path id="arc_7_8" data-name="arc 7/8" d="M263.82,188.37c6.45-.86,11.07-.91,11.07-.91l1.35-50.92c-5.91,.13-17.88,1.83-17.88,1.83l5.46,50Z"/>
      <path id="arc_8_8" data-name="arc 8/8" d="M335.29,143.5c-23.83-6.84-45.17-6.84-45.17-6.84l-1.67,51.1c5.53,.58,7.35,.97,7.35,.97,2.32-43.79,39.49-45.24,39.49-45.24Z"/>
    </g>
  </g>
</svg>